<?xml version="1.0" encoding="UTF-8" standalone="no"?>
<svg
   viewBox="0 0 604.95996 510.72"
   height="510.72"
   width="604.95996"
   xml:space="preserve"
   id="svg2"
   version="1.1"
   sodipodi:docname="TABLA_DE_ACTIVIDADES.SVG"
   inkscape:version="1.2.2 (732a01da63, 2022-12-09)"
   xmlns:inkscape="http://www.inkscape.org/namespaces/inkscape"
   xmlns:sodipodi="http://sodipodi.sourceforge.net/DTD/sodipodi-0.dtd"
   xmlns="http://www.w3.org/2000/svg"
   xmlns:svg="http://www.w3.org/2000/svg"
   xmlns:rdf="http://www.w3.org/1999/02/22-rdf-syntax-ns#"
   xmlns:cc="http://creativecommons.org/ns#"
   xmlns:dc="http://purl.org/dc/elements/1.1/"><sodipodi:namedview
     id="namedview5652"
     pagecolor="#505050"
     bordercolor="#ffffff"
     borderopacity="1"
     inkscape:showpageshadow="0"
     inkscape:pageopacity="0"
     inkscape:pagecheckerboard="1"
     inkscape:deskcolor="#505050"
     showgrid="false"
     inkscape:zoom="0.55965909"
     inkscape:cx="215.30964"
     inkscape:cy="309.11675"
     inkscape:window-width="1366"
     inkscape:window-height="745"
     inkscape:window-x="-8"
     inkscape:window-y="-8"
     inkscape:window-maximized="1"
     inkscape:current-layer="g10" /><metadata
     id="metadata8"><rdf:RDF><cc:Work
         rdf:about=""><dc:format>image/svg+xml</dc:format><dc:type
           rdf:resource="http://purl.org/dc/dcmitype/StillImage" /></cc:Work></rdf:RDF></metadata><defs
     id="defs6"><clipPath
       id="clipPath138"
       clipPathUnits="userSpaceOnUse"><path
         style="clip-rule:evenodd"
         id="path136"
         d="M 85.760002,73.599998 H 97.599998 V 88.959999 H 85.760002 Z" /></clipPath><clipPath
       id="clipPath150"
       clipPathUnits="userSpaceOnUse"><path
         style="clip-rule:evenodd"
         id="path148"
         d="m 138.72,73.599998 h 33.60001 V 88.959999 H 138.72 Z" /></clipPath><clipPath
       id="clipPath162"
       clipPathUnits="userSpaceOnUse"><path
         style="clip-rule:evenodd"
         id="path160"
         d="M 340.32001,73.599998 H 384 v 15.360001 h -43.67999 z" /></clipPath><clipPath
       id="clipPath174"
       clipPathUnits="userSpaceOnUse"><path
         style="clip-rule:evenodd"
         id="path172"
         d="m 555.20001,73.599998 h 91.20001 v 15.360001 h -91.20001 z" /></clipPath></defs><g
     transform="translate(-66.080002,-72.160004)"
     id="g10"><g
       id="g12"><path
         id="path14"
         style="fill:#000000;fill-opacity:1;fill-rule:nonzero;stroke:none"
         d="M 66.080002,73.279999 H 670.56 V 89.760002 H 66.080002 Z" /></g><g
       id="g16"><path
         id="path18"
         style="fill:#404040;fill-opacity:1;fill-rule:nonzero;stroke:none"
         d="M 66.080002,89.599998 H 670.56 V 107.52 H 66.080002 Z" /></g><g
       id="g20"><path
         id="path22"
         style="fill:#737373;fill-opacity:1;fill-rule:nonzero;stroke:none"
         d="M 66.080002,107.36 H 670.56 v 17.12 H 66.080002 Z" /></g><g
       id="g24"><path
         id="path26"
         style="fill:#404040;fill-opacity:1;fill-rule:nonzero;stroke:none"
         d="M 66.080002,124.32 H 670.56 v 17.12 H 66.080002 Z" /></g><g
       id="g28"><path
         id="path30"
         style="fill:#737373;fill-opacity:1;fill-rule:nonzero;stroke:none"
         d="M 66.080002,141.28 H 670.56 v 17.11999 H 66.080002 Z" /></g><g
       id="g32"><path
         id="path34"
         style="fill:#404040;fill-opacity:1;fill-rule:nonzero;stroke:none"
         d="M 66.080002,158.24 H 670.56 v 17.12 H 66.080002 Z" /></g><g
       id="g36"><path
         id="path38"
         style="fill:#737373;fill-opacity:1;fill-rule:nonzero;stroke:none"
         d="M 66.080002,175.2 H 670.56 v 17.12001 H 66.080002 Z" /></g><g
       id="g40"><path
         id="path42"
         style="fill:#404040;fill-opacity:1;fill-rule:nonzero;stroke:none"
         d="M 66.080002,192.16 H 670.56 v 17.12 H 66.080002 Z" /></g><g
       id="g44"><path
         id="path46"
         style="fill:#737373;fill-opacity:1;fill-rule:nonzero;stroke:none"
         d="M 66.080002,209.11999 H 670.56 V 226.24 H 66.080002 Z" /></g><g
       id="g48"><path
         id="path50"
         style="fill:#404040;fill-opacity:1;fill-rule:nonzero;stroke:none"
         d="M 66.080002,226.08 H 670.56 V 243.2 H 66.080002 Z" /></g><g
       id="g52"><path
         id="path54"
         style="fill:#737373;fill-opacity:1;fill-rule:nonzero;stroke:none"
         d="M 66.080002,243.03999 H 670.56 V 260.16 H 66.080002 Z" /></g><g
       id="g56"><path
         id="path58"
         style="fill:#404040;fill-opacity:1;fill-rule:nonzero;stroke:none"
         d="M 66.080002,260 H 670.56 v 17.12 H 66.080002 Z" /></g><g
       id="g60"><path
         id="path62"
         style="fill:#737373;fill-opacity:1;fill-rule:nonzero;stroke:none"
         d="M 66.080002,276.95999 H 670.56 v 17.12 H 66.080002 Z" /></g><g
       id="g64"><path
         id="path66"
         style="fill:#404040;fill-opacity:1;fill-rule:nonzero;stroke:none"
         d="M 66.080002,293.92001 H 670.56 v 17.12 H 66.080002 Z" /></g><g
       id="g68"><path
         id="path70"
         style="fill:#737373;fill-opacity:1;fill-rule:nonzero;stroke:none"
         d="M 66.080002,310.88 H 670.56 V 328 H 66.080002 Z" /></g><g
       id="g72"><path
         id="path74"
         style="fill:#404040;fill-opacity:1;fill-rule:nonzero;stroke:none"
         d="M 66.080002,327.84 H 670.56 v 17.11999 H 66.080002 Z" /></g><g
       id="g76"><path
         id="path78"
         style="fill:#737373;fill-opacity:1;fill-rule:nonzero;stroke:none"
         d="M 66.080002,344.79999 H 670.56 v 17.12002 H 66.080002 Z" /></g><g
       id="g80"><path
         id="path82"
         style="fill:#404040;fill-opacity:1;fill-rule:nonzero;stroke:none"
         d="M 66.080002,361.76001 H 670.56 V 378.88 H 66.080002 Z" /></g><g
       id="g84"><path
         id="path86"
         style="fill:#737373;fill-opacity:1;fill-rule:nonzero;stroke:none"
         d="M 66.080002,378.72 H 670.56 v 17.12 H 66.080002 Z" /></g><g
       id="g88"><path
         id="path90"
         style="fill:#404040;fill-opacity:1;fill-rule:nonzero;stroke:none"
         d="M 66.080002,395.67999 H 670.56 v 17.12 H 66.080002 Z" /></g><g
       id="g92"><path
         id="path94"
         style="fill:#737373;fill-opacity:1;fill-rule:nonzero;stroke:none"
         d="M 66.080002,412.64001 H 670.56 v 17.12 H 66.080002 Z" /></g><g
       id="g96"><path
         id="path98"
         style="fill:#404040;fill-opacity:1;fill-rule:nonzero;stroke:none"
         d="M 66.080002,429.60001 H 670.56 V 446.72 H 66.080002 Z" /></g><g
       id="g100"><path
         id="path102"
         style="fill:#737373;fill-opacity:1;fill-rule:nonzero;stroke:none"
         d="M 66.080002,446.56 H 670.56 v 17.11999 H 66.080002 Z" /></g><g
       id="g104"><path
         id="path106"
         style="fill:#404040;fill-opacity:1;fill-rule:nonzero;stroke:none"
         d="M 66.080002,463.51999 H 670.56 v 17.12002 H 66.080002 Z" /></g><g
       id="g108"><path
         id="path110"
         style="fill:#737373;fill-opacity:1;fill-rule:nonzero;stroke:none"
         d="M 66.080002,480.48001 H 670.56 v 17.12 H 66.080002 Z" /></g><g
       id="g112"><path
         id="path114"
         style="fill:#404040;fill-opacity:1;fill-rule:nonzero;stroke:none"
         d="M 66.080002,497.44 H 670.56 v 17.12 H 66.080002 Z" /></g><g
       id="g116"><path
         id="path118"
         style="fill:#737373;fill-opacity:1;fill-rule:nonzero;stroke:none"
         d="M 66.080002,514.40002 H 670.56 v 17.12 H 66.080002 Z" /></g><g
       id="g120"><path
         id="path122"
         style="fill:#404040;fill-opacity:1;fill-rule:nonzero;stroke:none"
         d="M 66.080002,531.35998 H 670.56 v 17.12 H 66.080002 Z" /></g><g
       id="g124"><path
         id="path126"
         style="fill:#737373;fill-opacity:1;fill-rule:nonzero;stroke:none"
         d="M 66.080002,548.32001 H 670.56 V 565.44 H 66.080002 Z" /></g><g
       id="g128"><path
         id="path130"
         style="fill:#404040;fill-opacity:1;fill-rule:nonzero;stroke:none"
         d="M 66.080002,565.28003 H 670.56 v 17.11999 H 66.080002 Z" /></g><g
       id="g132"><g
         clip-path="url(#clipPath138)"
         id="g134"><text
   id="text142"
   style="font-variant:normal;font-weight:normal;font-size:13.4145px;font-family:F1;-inkscape-font-specification:F1;writing-mode:lr-tb;fill:#ffffff;fill-opacity:1;fill-rule:nonzero;stroke:none"
   transform="translate(85.760002,86.080002)"><tspan
     id="tspan140"
     y="0"
     x="0 3.6219151">Id</tspan></text>
</g></g><g
       id="g144"><g
         clip-path="url(#clipPath150)"
         id="g146"><text
   id="text154"
   style="font-variant:normal;font-weight:normal;font-size:13.4145px;font-family:F1;-inkscape-font-specification:F1;writing-mode:lr-tb;fill:#ffffff;fill-opacity:1;fill-rule:nonzero;stroke:none"
   transform="translate(138.72,86.080002)"><tspan
     id="tspan152"
     y="0"
     x="0 9.7925854 17.986696 26.035397">Code</tspan></text>
</g></g><g
       id="g156"><g
         clip-path="url(#clipPath162)"
         id="g158"><text
   id="text166"
   style="font-variant:normal;font-weight:normal;font-size:13.4145px;font-family:F1;-inkscape-font-specification:F1;writing-mode:lr-tb;fill:#ffffff;fill-opacity:1;fill-rule:nonzero;stroke:none"
   transform="translate(340.32001,86.080002)"><tspan
     id="tspan164"
     y="0"
     x="0 8.3169899 15.777495 21.143295 28.603802 36.064308">Tareas</tspan></text>
</g></g><g
       id="g168"><g
         clip-path="url(#clipPath174)"
         id="g170"><text
   id="text178"
   style="font-variant:normal;font-weight:normal;font-size:13.4145px;font-family:F1;-inkscape-font-specification:F1;writing-mode:lr-tb;fill:#ffffff;fill-opacity:1;fill-rule:nonzero;stroke:none"
   transform="translate(555.20001,86.080002)"><tspan
     id="tspan176"
     y="0"
     x="0 9.7925854 17.25309 25.447201 32.907707 41.101818 49.295929 56.673904 64.868019 72.328522 76.055496 83.516006">Dependencias</tspan></text>
</g></g><g
       id="g180"><text
   id="text184"
   style="font-variant:normal;font-weight:normal;font-size:13.4145px;font-family:F2;-inkscape-font-specification:F2;writing-mode:lr-tb;fill:#ffffff;fill-opacity:1;fill-rule:nonzero;stroke:none"
   transform="translate(88,103.84)"><tspan
     id="tspan182"
     y="0"
     x="0 63.048149">1A</tspan></text>
</g><g
       id="g186"><text
   id="text190"
   style="font-variant:normal;font-weight:normal;font-size:13.4145px;font-family:F2;-inkscape-font-specification:F2;writing-mode:lr-tb;fill:#ffffff;fill-opacity:1;fill-rule:nonzero;stroke:none"
   transform="translate(299.84,103.2)"><tspan
     id="tspan188"
     y="0"
     x="0 8.9473667 12.032701 19.493208 26.200457 32.907707 35.993042 43.453548 50.914055 54.641033 62.101536 69.562042 73.289017 77.015999 84.476501 95.87883 103.33933 107.06631 110.04659 116.75384">Elección de temática</tspan></text>
</g><g
       id="g192"><text
   id="text196"
   style="font-variant:normal;font-weight:normal;font-size:13.4145px;font-family:F3;-inkscape-font-specification:F3;writing-mode:lr-tb;fill:#ffffff;fill-opacity:1;fill-rule:nonzero;stroke:none"
   transform="translate(596.32001,103.36)"><tspan
     id="tspan194"
     y="0"
     x="0">Ø</tspan></text>
</g><g
       id="g198"><text
   id="text202"
   style="font-variant:normal;font-weight:normal;font-size:13.4145px;font-family:F2;-inkscape-font-specification:F2;writing-mode:lr-tb;fill:#ffffff;fill-opacity:1;fill-rule:nonzero;stroke:none"
   transform="translate(88,120.8)"><tspan
     id="tspan200"
     y="0"
     x="0 63.048149">2B</tspan></text>
</g><g
       id="g204"><text
   id="text208"
   style="font-variant:normal;font-weight:normal;font-size:13.4145px;font-family:F2;-inkscape-font-specification:F2;writing-mode:lr-tb;fill:#ffffff;fill-opacity:1;fill-rule:nonzero;stroke:none"
   transform="translate(282.56,120.48)"><tspan
     id="tspan206"
     y="0"
     x="0 9.7925854 17.25309 24.713596 28.603802 36.064308 42.771557 49.478806 52.56414 60.024647 67.485153 71.212128 78.672638 86.318901 89.940819 93.026154 100.48666 104.21364 111.67414 119.13464 125.97604 133.43655 140.89705 147.60431 151.33128 313.51257">Confección de la encuestaA</tspan></text>
</g><g
       id="g210"><text
   id="text214"
   style="font-variant:normal;font-weight:normal;font-size:13.4145px;font-family:F2;-inkscape-font-specification:F2;writing-mode:lr-tb;fill:#ffffff;fill-opacity:1;fill-rule:nonzero;stroke:none"
   transform="translate(88,137.75999)"><tspan
     id="tspan212"
     y="0"
     x="0 62.51157">3C</tspan></text>
</g><g
       id="g216"><text
   id="text220"
   style="font-variant:normal;font-weight:normal;font-size:13.4145px;font-family:F2;-inkscape-font-specification:F2;writing-mode:lr-tb;fill:#ffffff;fill-opacity:1;fill-rule:nonzero;stroke:none"
   transform="translate(281.92001,137.44)"><tspan
     id="tspan218"
     y="0"
     x="0 8.9473667 16.407873 23.868378 26.953712 30.039047 36.7463 44.206802 50.914055 53.99939 61.459892 68.920403 72.647377 80.10788 87.75415 91.37606 94.461395 101.92191 105.64888 113.10939 120.56989 127.27715 134.73766 142.38391 149.09116 152.71307 314.22366">Publicación de la encuestaB</tspan></text>
</g><g
       id="g222"><text
   id="text226"
   style="font-variant:normal;font-weight:normal;font-size:13.4145px;font-family:F2;-inkscape-font-specification:F2;writing-mode:lr-tb;fill:#ffffff;fill-opacity:1;fill-rule:nonzero;stroke:none"
   transform="translate(88,154.72)"><tspan
     id="tspan224"
     y="0"
     x="0 62.51157">4D</tspan></text>
</g><g
       id="g228"><text
   id="text232"
   style="font-variant:normal;font-weight:normal;font-size:13.4145px;font-family:F2;-inkscape-font-specification:F2;writing-mode:lr-tb;fill:#ffffff;fill-opacity:1;fill-rule:nonzero;stroke:none"
   transform="translate(240.32001,154.39999)"><tspan
     id="tspan230"
     y="0"
     x="0 8.9473667 16.407873 23.868378 26.953712 30.039047 36.7463 39.831635 46.538883 50.160797 57.621304 65.08181 68.808784 71.894119 79.35463 86.061874 89.788857 94.255989 101.71649 108.42374 115.88425 118.96958 122.69656 130.15707 137.61757 145.26384 151.97108 155.593 163.05351 170.51401 174.241 177.32632 184.78683 188.51381 195.97432 203.43483 210.27621 217.73672 225.19724 231.90448 235.63145 355.28879">Análisis de los resultados de la encuestaC</tspan></text>
</g><g
       id="g234"><text
   id="text238"
   style="font-variant:normal;font-weight:normal;font-size:13.4145px;font-family:F2;-inkscape-font-specification:F2;writing-mode:lr-tb;fill:#ffffff;fill-opacity:1;fill-rule:nonzero;stroke:none"
   transform="translate(88,171.67999)"><tspan
     id="tspan236"
     y="0"
     x="0 63.048149">5E</tspan></text>
</g><g
       id="g240"><text
   id="text244"
   style="font-variant:normal;font-weight:normal;font-size:13.4145px;font-family:F2;-inkscape-font-specification:F2;writing-mode:lr-tb;fill:#ffffff;fill-opacity:1;fill-rule:nonzero;stroke:none"
   transform="translate(276.95999,171.36)"><tspan
     id="tspan242"
     y="0"
     x="0 9.7925854 17.25309 20.980068 28.440575 35.147823 41.855076 44.940411 52.400913 59.86142 63.588398 71.048904 78.509407 82.236389 89.696892 97.343155 104.80367 108.42558 115.88609 123.53235 130.23959 137.7001 144.40735 147.49269 154.9532 162.4137 318.82678">Detección de una nececidadD</tspan></text>
</g><g
       id="g246"><text
   id="text250"
   style="font-variant:normal;font-weight:normal;font-size:13.4145px;font-family:F2;-inkscape-font-specification:F2;writing-mode:lr-tb;fill:#ffffff;fill-opacity:1;fill-rule:nonzero;stroke:none"
   transform="translate(88,188.64)"><tspan
     id="tspan248"
     y="0"
     x="0 63.316441">6F</tspan></text>
</g><g
       id="g252"><text
   id="text256"
   style="font-variant:normal;font-weight:normal;font-size:13.4145px;font-family:F2;-inkscape-font-specification:F2;writing-mode:lr-tb;fill:#ffffff;fill-opacity:1;fill-rule:nonzero;stroke:none"
   transform="translate(273.60001,188.32001)"><tspan
     id="tspan254"
     y="0"
     x="0 3.6219151 11.08242 18.057961 25.518467 32.225716 35.952694 39.038029 46.498535 53.959042 60.66629 63.751625 71.212128 78.672638 82.399612 89.860123 97.506386 101.1283 104.21364 111.67414 115.40112 122.86163 130.32213 137.02937 144.48988 151.33128 154.31155 161.77206 169.41832 322.47778">Investigación de la necesidadE</tspan></text>
</g><g
       id="g258"><text
   id="text262"
   style="font-variant:normal;font-weight:normal;font-size:13.4145px;font-family:F2;-inkscape-font-specification:F2;writing-mode:lr-tb;fill:#ffffff;fill-opacity:1;fill-rule:nonzero;stroke:none"
   transform="translate(88,205.60001)"><tspan
     id="tspan260"
     y="0"
     x="0 62.243279">7G</tspan></text>
</g><g
       id="g264"><text
   id="text268"
   style="font-variant:normal;font-weight:normal;font-size:13.4145px;font-family:F2;-inkscape-font-specification:F2;writing-mode:lr-tb;fill:#ffffff;fill-opacity:1;fill-rule:nonzero;stroke:none"
   transform="translate(242.08,205.28)"><tspan
     id="tspan266"
     y="0"
     x="0 7.4605055 10.54584 18.006346 24.981886 27.962158 35.422665 39.149643 46.610146 54.070652 57.79763 60.882965 68.343468 75.803978 83.450241 90.157494 93.779404 97.401321 104.24271 111.70322 114.78856 122.24906 128.95631 132.04164 139.50215 146.96266 154.42317 161.26456 164.88647 168.61345 176.07396 182.7812 190.24171 197.70222 200.78755 208.24806 215.89433 218.8746 225.58185 233.04236 354.44357">Lluvia de ideas, soluciones tecnológicasF</tspan></text>
</g><g
       id="g270"><text
   id="text274"
   style="font-variant:normal;font-weight:normal;font-size:13.4145px;font-family:F2;-inkscape-font-specification:F2;writing-mode:lr-tb;fill:#ffffff;fill-opacity:1;fill-rule:nonzero;stroke:none"
   transform="translate(88,222.56)"><tspan
     id="tspan272"
     y="0"
     x="0 62.51157">8H</tspan></text>
</g><g
       id="g276"><text
   id="text280"
   style="font-variant:normal;font-weight:normal;font-size:13.4145px;font-family:F2;-inkscape-font-specification:F2;writing-mode:lr-tb;fill:#ffffff;fill-opacity:1;fill-rule:nonzero;stroke:none"
   transform="translate(299.67999,222.24)"><tspan
     id="tspan278"
     y="0"
     x="0 8.9473667 12.032701 19.493208 26.200457 32.907707 35.993042 43.453548 50.914055 54.641033 62.101536 69.562042 73.289017 80.749527 85.310455 92.770958 99.344063 106.80457 113.64597 117.26788 295.81488">Elección de proyectoG</tspan></text>
</g><g
       id="g282"><text
   id="text286"
   style="font-variant:normal;font-weight:normal;font-size:13.4145px;font-family:F2;-inkscape-font-specification:F2;writing-mode:lr-tb;fill:#ffffff;fill-opacity:1;fill-rule:nonzero;stroke:none"
   transform="translate(88,239.52)"><tspan
     id="tspan284"
     y="0"
     x="0 65.596909">9I</tspan></text>
</g><g
       id="g288"><text
   id="text292"
   style="font-variant:normal;font-weight:normal;font-size:13.4145px;font-family:F2;-inkscape-font-specification:F2;writing-mode:lr-tb;fill:#ffffff;fill-opacity:1;fill-rule:nonzero;stroke:none"
   transform="translate(283.67999,239.2)"><tspan
     id="tspan290"
     y="0"
     x="0 3.6219151 11.08242 18.057961 25.518467 32.225716 35.952694 39.038029 46.498535 53.959042 60.66629 63.751625 71.212128 78.672638 82.399612 89.860123 97.506386 100.48666 104.10857 115.51089 122.97141 127.53233 134.23958 141.70009 149.1606 312.14676">Investigación del mercadoH</tspan></text>
</g><g
       id="g294"><text
   id="text298"
   style="font-variant:normal;font-weight:normal;font-size:13.4145px;font-family:F2;-inkscape-font-specification:F2;writing-mode:lr-tb;fill:#ffffff;fill-opacity:1;fill-rule:nonzero;stroke:none"
   transform="translate(84.160004,256.48001)"><tspan
     id="tspan296"
     y="0"
     x="0 7.4605055 67.9599">10J</tspan></text>
</g><g
       id="g300"><text
   id="text304"
   style="font-variant:normal;font-weight:normal;font-size:13.4145px;font-family:F2;-inkscape-font-specification:F2;writing-mode:lr-tb;fill:#ffffff;fill-opacity:1;fill-rule:nonzero;stroke:none"
   transform="translate(241.60001,256.16)"><tspan
     id="tspan302"
     y="0"
     x="0 9.7925854 12.772858 20.233362 27.879627 32.34676 39.807266 51.209591 58.670097 65.37735 68.462685 75.923187 83.38369 87.110672 93.817924 96.903259 103.6105 107.23242 114.69292 126.09525 133.55576 137.28273 140.36807 147.07532 154.53583 158.15775 165.61824 173.26451 176.88643 179.97176 187.43227 191.15924 197.8665 205.327 208.41234 215.87285 222.58009 225.66542 233.12593 354.12473">Diagramación sistematica de la soluciónH</tspan></text>
</g><g
       id="g306"><text
   id="text310"
   style="font-variant:normal;font-weight:normal;font-size:13.4145px;font-family:F2;-inkscape-font-specification:F2;writing-mode:lr-tb;fill:#ffffff;fill-opacity:1;fill-rule:nonzero;stroke:none"
   transform="translate(84.160004,273.44)"><tspan
     id="tspan308"
     y="0"
     x="0 7.4605055 66.886742">11K</tspan></text>
</g><g
       id="g312"><text
   id="text316"
   style="font-variant:normal;font-weight:normal;font-size:13.4145px;font-family:F2;-inkscape-font-specification:F2;writing-mode:lr-tb;fill:#ffffff;fill-opacity:1;fill-rule:nonzero;stroke:none"
   transform="translate(270.88,273.12)"><tspan
     id="tspan314"
     y="0"
     x="0 8.9473667 15.654616 23.115122 30.575628 37.417023 40.397297 44.287498 47.267773 53.975021 61.435528 68.276924 71.257195 78.717697 86.178207 89.905182 97.365692 105.01196 108.63387 115.34112 122.80163 130.44789 137.9084 141.5303 148.99081 152.07616 159.53665 167.18292 174.64343 322.60538 326.33234 329.95425">Especificación de cada bloqueI;J</tspan></text>
</g><g
       id="g318"><text
   id="text322"
   style="font-variant:normal;font-weight:normal;font-size:13.4145px;font-family:F2;-inkscape-font-specification:F2;writing-mode:lr-tb;fill:#ffffff;fill-opacity:1;fill-rule:nonzero;stroke:none"
   transform="translate(84.160004,290.39999)"><tspan
     id="tspan320"
     y="0"
     x="0 7.4605055 67.557465">12L</tspan></text>
</g><g
       id="g324"><text
   id="text328"
   style="font-variant:normal;font-weight:normal;font-size:13.4145px;font-family:F2;-inkscape-font-specification:F2;writing-mode:lr-tb;fill:#ffffff;fill-opacity:1;fill-rule:nonzero;stroke:none"
   transform="translate(255.36,290.07999)"><tspan
     id="tspan326"
     y="0"
     x="0 8.9473667 12.032701 19.493208 26.200457 32.907707 35.993042 43.453548 50.914055 54.641033 61.214138 64.836052 71.543304 79.003807 90.406136 97.866638 102.42757 109.88808 113.61505 121.07555 128.53606 132.26305 138.97029 146.4308 157.83311 165.29362 172.9399 180.40039 187.8609 195.32141 199.04839 206.5089 340.6539">Elección y compra de componentesK</tspan></text>
</g><g
       id="g330"><text
   id="text334"
   style="font-variant:normal;font-weight:normal;font-size:13.4145px;font-family:F2;-inkscape-font-specification:F2;writing-mode:lr-tb;fill:#ffffff;fill-opacity:1;fill-rule:nonzero;stroke:none"
   transform="translate(84.160004,307.35999)"><tspan
     id="tspan332"
     y="0"
     x="0 7.4605055 65.679436">13M</tspan></text>
</g><g
       id="g336"><text
   id="text340"
   style="font-variant:normal;font-weight:normal;font-size:13.4145px;font-family:F2;-inkscape-font-specification:F2;writing-mode:lr-tb;fill:#ffffff;fill-opacity:1;fill-rule:nonzero;stroke:none"
   transform="translate(296.48001,307.04001)"><tspan
     id="tspan338"
     y="0"
     x="0 8.9473667 12.032701 19.493208 26.200457 32.907707 35.993042 43.453548 50.914055 54.641033 62.101536 69.562042 73.289017 79.996269 87.456779 91.346977 95.073959 104.76148 112.22198 116.78291 124.24342 299.57092">Elección de softwaresK</tspan></text>
</g><g
       id="g342"><text
   id="text346"
   style="font-variant:normal;font-weight:normal;font-size:13.4145px;font-family:F2;-inkscape-font-specification:F2;writing-mode:lr-tb;fill:#ffffff;fill-opacity:1;fill-rule:nonzero;stroke:none"
   transform="translate(84.160004,324.32001)"><tspan
     id="tspan344"
     y="0"
     x="0 7.4605055 66.350159">14N</tspan></text>
</g><g
       id="g348"><text
   id="text352"
   style="font-variant:normal;font-weight:normal;font-size:13.4145px;font-family:F2;-inkscape-font-specification:F2;writing-mode:lr-tb;fill:#ffffff;fill-opacity:1;fill-rule:nonzero;stroke:none"
   transform="translate(291.20001,324)"><tspan
     id="tspan350"
     y="0"
     x="0 8.9473667 12.032701 19.493208 26.200457 32.907707 35.993042 43.453548 50.914055 54.641033 62.101536 69.562042 73.289017 79.996269 87.456779 95.103043 102.56355 109.40495 112.49028 119.95078 127.41129 135.05756 298.31201 305.77252 309.49951">Elección de conexionesL;M</tspan></text>
</g><g
       id="g354"><text
   id="text358"
   style="font-variant:normal;font-weight:normal;font-size:13.4145px;font-family:F2;-inkscape-font-specification:F2;writing-mode:lr-tb;fill:#ffffff;fill-opacity:1;fill-rule:nonzero;stroke:none"
   transform="translate(84.160004,341.28)"><tspan
     id="tspan356"
     y="0"
     x="0 7.4605055 66.081871">15O</tspan></text>
</g><g
       id="g360"><text
   id="text364"
   style="font-variant:normal;font-weight:normal;font-size:13.4145px;font-family:F2;-inkscape-font-specification:F2;writing-mode:lr-tb;fill:#ffffff;fill-opacity:1;fill-rule:nonzero;stroke:none"
   transform="translate(239.84,340.95999)"><tspan
     id="tspan362"
     y="0"
     x="0 8.9473667 13.4145 20.875006 28.335512 35.981777 43.442284 47.169258 54.629765 62.090271 65.817245 68.90258 76.363091 83.070343 86.692253 93.399506 100.86001 112.26234 119.72284 127.3691 134.82961 142.29012 149.93639 153.5583 161.0188 167.72606 171.45303 178.16028 185.62079 197.02312 204.48361 211.94412 219.59039 226.29764 229.91956 237.38005 356.90326">Prueba de los componentes compuestosL</tspan></text>
</g><g
       id="g366"><text
   id="text370"
   style="font-variant:normal;font-weight:normal;font-size:13.4145px;font-family:F2;-inkscape-font-specification:F2;writing-mode:lr-tb;fill:#ffffff;fill-opacity:1;fill-rule:nonzero;stroke:none"
   transform="translate(84.160004,358.23999)"><tspan
     id="tspan368"
     y="0"
     x="0 7.4605055 66.886742">16P</tspan></text>
</g><g
       id="g372"><text
   id="text376"
   style="font-variant:normal;font-weight:normal;font-size:13.4145px;font-family:F2;-inkscape-font-specification:F2;writing-mode:lr-tb;fill:#ffffff;fill-opacity:1;fill-rule:nonzero;stroke:none"
   transform="translate(277.28,357.92001)"><tspan
     id="tspan374"
     y="0"
     x="0 9.7925854 17.25309 24.713596 28.603802 36.064308 42.771557 49.478806 52.56414 60.024647 67.485153 71.212128 78.672638 86.318901 89.299171 93.026154 100.48666 107.19391 114.65441 122.11492 129.76118 141.02936 148.67563 152.29755 155.38287 162.09013 318.5032">Confección del esquemáticoN</tspan></text>
</g><g
       id="g378"><text
   id="text382"
   style="font-variant:normal;font-weight:normal;font-size:13.4145px;font-family:F2;-inkscape-font-specification:F2;writing-mode:lr-tb;fill:#ffffff;fill-opacity:1;fill-rule:nonzero;stroke:none"
   transform="translate(84.160004,375.20001)"><tspan
     id="tspan380"
     y="0"
     x="0 7.4605055 66.081871">17Q</tspan></text>
</g><g
       id="g384"><text
   id="text388"
   style="font-variant:normal;font-weight:normal;font-size:13.4145px;font-family:F2;-inkscape-font-specification:F2;writing-mode:lr-tb;fill:#ffffff;fill-opacity:1;fill-rule:nonzero;stroke:none"
   transform="translate(282.88,374.88)"><tspan
     id="tspan386"
     y="0"
     x="0 9.7925854 17.25309 24.713596 28.603802 36.064308 42.771557 49.478806 52.56414 60.024647 67.485153 71.212128 78.672638 86.318901 89.299171 93.026154 100.48666 103.57199 110.27924 117.73975 125.20026 132.66075 136.38774 143.84824 150.68964 313.27338">Confección del diseño pcbP</tspan></text>
</g><g
       id="g390"><text
   id="text394"
   style="font-variant:normal;font-weight:normal;font-size:13.4145px;font-family:F2;-inkscape-font-specification:F2;writing-mode:lr-tb;fill:#ffffff;fill-opacity:1;fill-rule:nonzero;stroke:none"
   transform="translate(84.160004,392.16)"><tspan
     id="tspan392"
     y="0"
     x="0 7.4605055 66.350159">18R</tspan></text>
</g><g
       id="g396"><text
   id="text400"
   style="font-variant:normal;font-weight:normal;font-size:13.4145px;font-family:F2;-inkscape-font-specification:F2;writing-mode:lr-tb;fill:#ffffff;fill-opacity:1;fill-rule:nonzero;stroke:none"
   transform="translate(211.2,391.84)"><tspan
     id="tspan398"
     y="0"
     x="0 9.7925854 17.25309 24.713596 28.603802 31.689137 39.149643 46.610146 51.171078 58.631584 65.338837 68.424171 75.884674 83.345177 87.072159 94.532661 101.99317 105.07851 108.80548 117.75285 125.21336 128.94034 136.40083 140.96176 148.42227 155.88278 159.60976 167.07027 174.53076 178.25775 184.965 192.42551 196.3157 200.04268 209.73021 217.1907 221.75165 229.21214 232.93912 236.56104 244.02155 247.10687 250.83386 254.45578 261.02887 264.75586 272.21637 275.3017 278.92361 286.38412 294.0304 383.77338">Configuración del Entorno de software, git y githubM</tspan></text>
</g><g
       id="g402"><text
   id="text406"
   style="font-variant:normal;font-weight:normal;font-size:13.4145px;font-family:F2;-inkscape-font-specification:F2;writing-mode:lr-tb;fill:#ffffff;fill-opacity:1;fill-rule:nonzero;stroke:none"
   transform="translate(84.160004,409.12)"><tspan
     id="tspan404"
     y="0"
     x="0 7.4605055 66.886742">19S</tspan></text>
</g><g
       id="g408"><text
   id="text412"
   style="font-variant:normal;font-weight:normal;font-size:13.4145px;font-family:F2;-inkscape-font-specification:F2;writing-mode:lr-tb;fill:#ffffff;fill-opacity:1;fill-rule:nonzero;stroke:none"
   transform="translate(287.67999,408.79999)"><tspan
     id="tspan410"
     y="0"
     x="0 9.7925854 12.772858 20.233362 27.879627 32.34676 39.807266 51.209591 58.670097 65.37735 68.462685 75.923187 83.38369 87.110672 94.571175 102.03168 105.11702 108.84399 115.55125 123.01175 130.47226 133.55759 141.0181 307.49203">Diagramación del códigoM</tspan></text>
</g><g
       id="g414"><text
   id="text418"
   style="font-variant:normal;font-weight:normal;font-size:13.4145px;font-family:F2;-inkscape-font-specification:F2;writing-mode:lr-tb;fill:#ffffff;fill-opacity:1;fill-rule:nonzero;stroke:none"
   transform="translate(84.160004,426.07999)"><tspan
     id="tspan416"
     y="0"
     x="0 7.4605055 67.155029">20T</tspan></text>
</g><g
       id="g420"><text
   id="text424"
   style="font-variant:normal;font-weight:normal;font-size:13.4145px;font-family:F2;-inkscape-font-specification:F2;writing-mode:lr-tb;fill:#ffffff;fill-opacity:1;fill-rule:nonzero;stroke:none"
   transform="translate(295.67999,425.76001)"><tspan
     id="tspan422"
     y="0"
     x="0 9.7925854 17.25309 24.713596 28.603802 36.064308 42.771557 49.478806 52.56414 60.024647 67.485153 71.212128 78.672638 86.318901 89.299171 93.026154 99.733398 107.19391 114.65441 117.73975 125.20026 293.68637 303.47897 307.20593">Confección del códigoR;S</tspan></text>
</g><g
       id="g426"><text
   id="text430"
   style="font-variant:normal;font-weight:normal;font-size:13.4145px;font-family:F2;-inkscape-font-specification:F2;writing-mode:lr-tb;fill:#ffffff;fill-opacity:1;fill-rule:nonzero;stroke:none"
   transform="translate(84.160004,443.04001)"><tspan
     id="tspan428"
     y="0"
     x="0 7.4605055 66.350159">21U</tspan></text>
</g><g
       id="g432"><text
   id="text436"
   style="font-variant:normal;font-weight:normal;font-size:13.4145px;font-family:F2;-inkscape-font-specification:F2;writing-mode:lr-tb;fill:#ffffff;fill-opacity:1;fill-rule:nonzero;stroke:none"
   transform="translate(304.64001,442.72)"><tspan
     id="tspan434"
     y="0"
     x="0 9.7925854 17.25309 24.713596 28.603802 36.064308 42.771557 49.478806 52.56414 60.024647 67.485153 71.212128 78.672638 86.318901 89.299171 93.026154 100.48666 107.19391 290.83841">Confección del pcbQ</tspan></text>
</g><g
       id="g438"><text
   id="text442"
   style="font-variant:normal;font-weight:normal;font-size:13.4145px;font-family:F2;-inkscape-font-specification:F2;writing-mode:lr-tb;fill:#ffffff;fill-opacity:1;fill-rule:nonzero;stroke:none"
   transform="translate(84.160004,460)"><tspan
     id="tspan440"
     y="0"
     x="0 7.4605055 66.886742">22V</tspan></text>
</g><g
       id="g444"><text
   id="text448"
   style="font-variant:normal;font-weight:normal;font-size:13.4145px;font-family:F2;-inkscape-font-specification:F2;writing-mode:lr-tb;fill:#ffffff;fill-opacity:1;fill-rule:nonzero;stroke:none"
   transform="translate(313.76001,459.67999)"><tspan
     id="tspan446"
     y="0"
     x="0 8.9473667 16.407873 19.493208 26.953712 34.414219 42.060482 49.520988 53.142902 60.789169 68.249672 71.335007 74.956924 82.417427 89.12468 275.04965 285.48389 289.1058">Soldado del pcbO;U</tspan></text>
</g><g
       id="g450"><text
   id="text454"
   style="font-variant:normal;font-weight:normal;font-size:13.4145px;font-family:F2;-inkscape-font-specification:F2;writing-mode:lr-tb;fill:#ffffff;fill-opacity:1;fill-rule:nonzero;stroke:none"
   transform="translate(84.160004,476.95999)"><tspan
     id="tspan452"
     y="0"
     x="0 7.4605055 64.606277">23W</tspan></text>
</g><g
       id="g456"><text
   id="text460"
   style="font-variant:normal;font-weight:normal;font-size:13.4145px;font-family:F2;-inkscape-font-specification:F2;writing-mode:lr-tb;fill:#ffffff;fill-opacity:1;fill-rule:nonzero;stroke:none"
   transform="translate(317.44,476.64001)"><tspan
     id="tspan458"
     y="0"
     x="0 7.4605055 12.021436 19.481941 26.942448 34.402954 42.049217 45.671131 53.131638 60.777905 63.758175 67.380089 75.026352 81.733604 278.7926">prueba del pcbV</tspan></text>
</g><g
       id="g462"><text
   id="text466"
   style="font-variant:normal;font-weight:normal;font-size:13.4145px;font-family:F2;-inkscape-font-specification:F2;writing-mode:lr-tb;fill:#ffffff;fill-opacity:1;fill-rule:nonzero;stroke:none"
   transform="translate(84.160004,493.92001)"><tspan
     id="tspan464"
     y="0"
     x="0 7.4605055 66.886742">24X</tspan></text>
</g><g
       id="g468"><text
   id="text472"
   style="font-variant:normal;font-weight:normal;font-size:13.4145px;font-family:F2;-inkscape-font-specification:F2;writing-mode:lr-tb;fill:#ffffff;fill-opacity:1;fill-rule:nonzero;stroke:none"
   transform="translate(308.48001,493.60001)"><tspan
     id="tspan470"
     y="0"
     x="0 7.4605055 12.021436 19.481941 26.942448 34.402954 42.049217 45.671131 53.131638 60.777905 63.758175 67.380089 74.221489 81.681992 89.142494 92.227829 99.688339 288.02792">prueba del códigoT</tspan></text>
</g><g
       id="g474"><text
   id="text478"
   style="font-variant:normal;font-weight:normal;font-size:13.4145px;font-family:F2;-inkscape-font-specification:F2;writing-mode:lr-tb;fill:#ffffff;fill-opacity:1;fill-rule:nonzero;stroke:none"
   transform="translate(84.160004,510.88)"><tspan
     id="tspan476"
     y="0"
     x="0 7.4605055 67.020889">25Y</tspan></text>
</g><g
       id="g480"><text
   id="text484"
   style="font-variant:normal;font-weight:normal;font-size:13.4145px;font-family:F2;-inkscape-font-specification:F2;writing-mode:lr-tb;fill:#ffffff;fill-opacity:1;fill-rule:nonzero;stroke:none"
   transform="translate(317.12,510.56)"><tspan
     id="tspan482"
     y="0"
     x="0 7.4605055 12.021436 19.481941 26.942448 34.402954 42.049217 45.671131 48.756466 56.216972 59.943951 67.404457 74.86496 79.425896 86.886398 270.66504 283.9454 287.56732">prueba integralW;X</tspan></text>
</g><g
       id="g486"><text
   id="text490"
   style="font-variant:normal;font-weight:normal;font-size:13.4145px;font-family:F2;-inkscape-font-specification:F2;writing-mode:lr-tb;fill:#ffffff;fill-opacity:1;fill-rule:nonzero;stroke:none"
   transform="translate(84.160004,527.84003)"><tspan
     id="tspan488"
     y="0"
     x="0 7.4605055 67.155029">26Z</tspan></text>
</g><g
       id="g492"><text
   id="text496"
   style="font-variant:normal;font-weight:normal;font-size:13.4145px;font-family:F2;-inkscape-font-specification:F2;writing-mode:lr-tb;fill:#ffffff;fill-opacity:1;fill-rule:nonzero;stroke:none"
   transform="translate(300.95999,527.52002)"><tspan
     id="tspan494"
     y="0"
     x="0 9.7925854 12.772858 19.480106 26.940613 34.58688 42.047382 45.6693 53.129803 60.77607 63.75634 67.483322 77.812485 85.272987 92.919258 95.899529 103.36003 110.82054 114.54752 295.37497">Diseño del GabineteY</tspan></text>
</g><g
       id="g498"><text
   id="text502"
   style="font-variant:normal;font-weight:normal;font-size:13.4145px;font-family:F2;-inkscape-font-specification:F2;writing-mode:lr-tb;fill:#ffffff;fill-opacity:1;fill-rule:nonzero;stroke:none"
   transform="translate(84.160004,544.79999)"><tspan
     id="tspan500"
     y="0"
     x="0 7.4605055 62.325809 71.273178">27AA</tspan></text>
</g><g
       id="g504"><text
   id="text508"
   style="font-variant:normal;font-weight:normal;font-size:13.4145px;font-family:F2;-inkscape-font-specification:F2;writing-mode:lr-tb;fill:#ffffff;fill-opacity:1;fill-rule:nonzero;stroke:none"
   transform="translate(288.16,544.47998)"><tspan
     id="tspan506"
     y="0"
     x="0 9.7925854 17.25309 24.713596 28.603802 36.064308 42.771557 49.478806 52.56414 60.024647 67.485153 71.212128 78.672638 86.318901 89.299171 93.026154 103.35532 110.81582 118.46209 121.44236 128.90286 136.36337 140.09035 308.44232">Confección del GabineteZ</tspan></text>
</g><g
       id="g510"><text
   id="text514"
   style="font-variant:normal;font-weight:normal;font-size:13.4145px;font-family:F2;-inkscape-font-specification:F2;writing-mode:lr-tb;fill:#ffffff;fill-opacity:1;fill-rule:nonzero;stroke:none"
   transform="translate(84.160004,561.76001)"><tspan
     id="tspan512"
     y="0"
     x="0 7.4605055 62.325809 71.273178">28AB</tspan></text>
</g><g
       id="g516"><text
   id="text520"
   style="font-variant:normal;font-weight:normal;font-size:13.4145px;font-family:F2;-inkscape-font-specification:F2;writing-mode:lr-tb;fill:#ffffff;fill-opacity:1;fill-rule:nonzero;stroke:none"
   transform="translate(324.16,561.44)"><tspan
     id="tspan518"
     y="0"
     x="0 8.9473667 13.4145 24.816826 32.277332 39.737835 47.198341 50.92532 54.815525 57.90086 65.361366 72.821869 267.6004 276.54779">Armado finalAA</tspan></text>
</g><g
       id="g522"><text
   id="text526"
   style="font-variant:normal;font-weight:normal;font-size:13.4145px;font-family:F2;-inkscape-font-specification:F2;writing-mode:lr-tb;fill:#ffffff;fill-opacity:1;fill-rule:nonzero;stroke:none"
   transform="translate(84.160004,578.71997)"><tspan
     id="tspan524"
     y="0"
     x="0 7.4605055 61.923374 70.870743">29AC</tspan></text>
</g><g
       id="g528"><text
   id="text532"
   style="font-variant:normal;font-weight:normal;font-size:13.4145px;font-family:F2;-inkscape-font-specification:F2;writing-mode:lr-tb;fill:#ffffff;fill-opacity:1;fill-rule:nonzero;stroke:none"
   transform="translate(326.72,578.40002)"><tspan
     id="tspan530"
     y="0"
     x="0 7.4605055 12.021436 19.481941 26.942448 34.402954 42.049217 45.671131 49.561337 52.646671 60.107178 67.56768 265.02911 273.9765">prueba finalAB</tspan></text>
</g><g
       id="g534"><path
         id="path536"
         style="fill:#000000;fill-opacity:1;fill-rule:evenodd;stroke:none"
         d="m 64.959999,72.160004 h 1.120003 V 582.88 H 64.959999 Z M 116.32,73.279999 h 1.12 V 582.88 h -1.12 z m 76.16,0 h 1.12001 V 582.88 H 192.48 Z m 337.11998,0 h 1.11999 V 582.88 h -1.11999 z m 140.32,0 h 1.12 V 582.88 h -1.12 z" /></g><g
       id="g538"><path
         id="path540"
         style="fill:#000000;fill-opacity:1;fill-rule:evenodd;stroke:none"
         d="M 66.080002,72.160004 H 671.03998 v 1.119995 H 66.080002 Z m 0,16.959999 H 671.03998 v 1.119995 H 66.080002 Z m 0,17.759997 H 671.03998 V 108 H 66.080002 Z m 0,16.96 H 671.03998 v 1.12 H 66.080002 Z m 0,16.96 H 671.03998 v 1.12 H 66.080002 Z m 0,16.95999 H 671.03998 V 158.88 H 66.080002 Z m 0,16.96001 H 671.03998 v 1.12 H 66.080002 Z m 0,16.95999 H 671.03998 V 192.8 H 66.080002 Z m 0,16.96001 H 671.03998 v 1.11999 H 66.080002 Z m 0,16.96001 H 671.03998 V 226.72 H 66.080002 Z m 0,16.95999 H 671.03998 v 1.11999 H 66.080002 Z m 0,16.95999 H 671.03998 v 1.12002 H 66.080002 Z m 0,16.96002 H 671.03998 v 1.12 H 66.080002 Z m 0,16.95999 H 671.03998 v 1.12 H 66.080002 Z m 0,16.95999 H 671.03998 v 1.12 H 66.080002 Z m 0,16.96 H 671.03998 v 1.12002 H 66.080002 Z m 0,16.96002 H 671.03998 V 345.44 H 66.080002 Z m 0,16.95999 H 671.03998 v 1.11999 H 66.080002 Z m 0,16.95999 H 671.03998 v 1.12 H 66.080002 Z m 0,16.96002 H 671.03998 v 1.12 H 66.080002 Z m 0,16.95999 H 671.03998 v 1.12 H 66.080002 Z m 0,16.96 H 671.03998 v 1.11999 H 66.080002 Z m 0,16.95999 H 671.03998 v 1.12002 H 66.080002 Z m 0,16.96002 H 671.03998 V 464.16 H 66.080002 Z m 0,16.95999 H 671.03998 v 1.12 H 66.080002 Z m 0,16.95999 H 671.03998 v 1.12 H 66.080002 Z m 0,16.95999 H 671.03998 v 1.12 H 66.080002 Z m 0,16.96002 H 671.03998 V 532 H 66.080002 Z m 0,16.96003 H 671.03998 v 1.11999 H 66.080002 Z m 0,16.95996 H 671.03998 v 1.11999 H 66.080002 Z m 0,16.96002 H 671.03998 V 582.88 H 66.080002 Z" /></g></g></svg>
