<?xml version="1.0" encoding="UTF-8" standalone="no"?>
<svg
   viewBox="0 0 1095.6801 657.76003"
   height="657.76001"
   width="1095.6801"
   xml:space="preserve"
   id="svg2"
   version="1.1"
   sodipodi:docname="GANTT_1.SVG"
   inkscape:version="1.2.2 (732a01da63, 2022-12-09)"
   xmlns:inkscape="http://www.inkscape.org/namespaces/inkscape"
   xmlns:sodipodi="http://sodipodi.sourceforge.net/DTD/sodipodi-0.dtd"
   xmlns="http://www.w3.org/2000/svg"
   xmlns:svg="http://www.w3.org/2000/svg"
   xmlns:rdf="http://www.w3.org/1999/02/22-rdf-syntax-ns#"
   xmlns:cc="http://creativecommons.org/ns#"
   xmlns:dc="http://purl.org/dc/elements/1.1/"><sodipodi:namedview
     id="namedview3186"
     pagecolor="#505050"
     bordercolor="#ffffff"
     borderopacity="1"
     inkscape:showpageshadow="0"
     inkscape:pageopacity="0"
     inkscape:pagecheckerboard="1"
     inkscape:deskcolor="#505050"
     showgrid="false"
     inkscape:zoom="0.37227416"
     inkscape:cx="299.51044"
     inkscape:cy="279.364"
     inkscape:window-width="1366"
     inkscape:window-height="745"
     inkscape:window-x="-8"
     inkscape:window-y="-8"
     inkscape:window-maximized="1"
     inkscape:current-layer="svg2" /><metadata
     id="metadata8"><rdf:RDF><cc:Work
         rdf:about=""><dc:format>image/svg+xml</dc:format><dc:type
           rdf:resource="http://purl.org/dc/dcmitype/StillImage" /></cc:Work></rdf:RDF></metadata><defs
     id="defs6"><clipPath
       id="clipPath476"
       clipPathUnits="userSpaceOnUse"><path
         style="clip-rule:evenodd"
         id="path474"
         d="M 198.39999,73.279999 H 236.8 v 17.919998 h -38.40001 z" /></clipPath><clipPath
       id="clipPath488"
       clipPathUnits="userSpaceOnUse"><path
         style="clip-rule:evenodd"
         id="path486"
         d="m 736.32001,73.279999 h 28 v 17.919998 h -28 z" /></clipPath></defs><g
     id="g3547"
     transform="translate(-24,-72.000069)"><g
       transform="translate(0,6.9397335e-5)"
       id="g10"><g
         id="g12"><path
           id="path14"
           style="fill:#ee0000;fill-opacity:1;fill-rule:nonzero;stroke:none"
           d="M 53.599998,195.52 H 189.28 v 18.56 H 53.599998 Z" /></g><g
         id="g16"><path
           id="path18"
           style="fill:#ee0000;fill-opacity:1;fill-rule:nonzero;stroke:none"
           d="M 162.24,213.92 H 272 v 18.56 H 162.24 Z" /></g><g
         id="g20"><path
           id="path22"
           style="fill:#ee0000;fill-opacity:1;fill-rule:nonzero;stroke:none"
           d="m 244.96001,232.32001 h 135.68 V 250.88 h -135.68 z" /></g><g
         id="g24"><path
           id="path26"
           style="fill:#ee0000;fill-opacity:1;fill-rule:nonzero;stroke:none"
           d="m 353.60001,250.72 h 109.75998 v 18.56 H 353.60001 Z" /></g><g
         id="g28"><path
           id="path30"
           style="fill:#ee0000;fill-opacity:1;fill-rule:nonzero;stroke:none"
           d="M 436.32001,269.12 H 572 v 18.55999 H 436.32001 Z" /></g><g
         id="g32"><path
           id="path34"
           style="fill:#ee0000;fill-opacity:1;fill-rule:nonzero;stroke:none"
           d="m 544.96002,287.51999 h 109.75995 v 18.56 H 544.96002 Z" /></g><g
         id="g36"><path
           id="path38"
           style="fill:#ee0000;fill-opacity:1;fill-rule:nonzero;stroke:none"
           d="m 627.67999,305.92001 h 135.67999 v 18.56 H 627.67999 Z" /></g><g
         id="g40"><path
           id="path42"
           style="fill:#ee0000;fill-opacity:1;fill-rule:nonzero;stroke:none"
           d="M 736.32001,324.32001 H 846.08002 V 342.88 H 736.32001 Z" /></g><g
         id="g44"><path
           id="path46"
           style="fill:#ee0000;fill-opacity:1;fill-rule:evenodd;stroke:none"
           d="m 819.03998,342.72 h 135.67999 v 36.95999 H 819.03998 Z" /></g><g
         id="g48"><path
           id="path50"
           style="fill:#ee0000;fill-opacity:1;fill-rule:nonzero;stroke:none"
           d="m 927.67999,379.51999 h 109.75991 v 18.56 H 927.67999 Z" /></g><g
         id="g52"><path
           id="path54"
           style="fill:#ee0000;fill-opacity:1;fill-rule:evenodd;stroke:none"
           d="m 1010.4,397.92001 h 108.8 V 434.88 h -108.8 z" /></g><g
         transform="matrix(0,0.044919,-0.044922,0,0,0)"
         id="g56"><text
   id="text60"
   style="font-variant:normal;font-weight:normal;font-size:327.68px;font-family:F1;-inkscape-font-specification:F1;writing-mode:lr-tb;fill:#000000;fill-opacity:1;fill-rule:nonzero;stroke:none"
   transform="translate(2187.04,-1356.96)"><tspan
     id="tspan58"
     y="0"
     x="0 180.224 363.72479 455.47519 638.97601 819.20001 910.95038 1094.4512 1274.6752 1458.176">20/03/2025</tspan></text>
</g><g
         transform="matrix(0,0.044919,-0.044922,0,0,0)"
         id="g62"><text
   id="text66"
   style="font-variant:normal;font-weight:normal;font-size:327.68px;font-family:F1;-inkscape-font-specification:F1;writing-mode:lr-tb;fill:#000000;fill-opacity:1;fill-rule:nonzero;stroke:none"
   transform="translate(2187.04,-1955.36)"><tspan
     id="tspan64"
     y="0"
     x="0 180.224 363.72479 455.47519 638.97601 819.20001 910.95038 1094.4512 1274.6752 1458.176">21/03/2025</tspan></text>
</g><g
         transform="matrix(0,0.044919,-0.044922,0,0,0)"
         id="g68"><text
   id="text72"
   style="font-variant:normal;font-weight:normal;font-size:327.68px;font-family:F1;-inkscape-font-specification:F1;writing-mode:lr-tb;fill:#000000;fill-opacity:1;fill-rule:nonzero;stroke:none"
   transform="translate(2187.04,-2553.76)"><tspan
     id="tspan70"
     y="0"
     x="0 180.224 363.72479 455.47519 638.97601 819.20001 910.95038 1094.4512 1274.6752 1458.176">22/03/2025</tspan></text>
</g><g
         transform="matrix(0,0.044919,-0.044922,0,0,0)"
         id="g74"><text
   id="text78"
   style="font-variant:normal;font-weight:normal;font-size:327.68px;font-family:F1;-inkscape-font-specification:F1;writing-mode:lr-tb;fill:#000000;fill-opacity:1;fill-rule:nonzero;stroke:none"
   transform="translate(2187.04,-3162.8799)"><tspan
     id="tspan76"
     y="0"
     x="0 180.224 363.72479 455.47519 638.97601 819.20001 910.95038 1094.4512 1274.6752 1458.176">23/03/2025</tspan></text>
</g><g
         transform="matrix(0,0.044919,-0.044922,0,0,0)"
         id="g80"><text
   id="text84"
   style="font-variant:normal;font-weight:normal;font-size:327.68px;font-family:F1;-inkscape-font-specification:F1;writing-mode:lr-tb;fill:#000000;fill-opacity:1;fill-rule:nonzero;stroke:none"
   transform="translate(2187.04,-3775.52)"><tspan
     id="tspan82"
     y="0"
     x="0 180.224 363.72479 455.47519 638.97601 819.20001 910.95038 1094.4512 1274.6752 1458.176">24/03/2025</tspan></text>
</g><g
         transform="matrix(0,0.044919,-0.044922,0,0,0)"
         id="g86"><text
   id="text90"
   style="font-variant:normal;font-weight:normal;font-size:327.68px;font-family:F1;-inkscape-font-specification:F1;writing-mode:lr-tb;fill:#000000;fill-opacity:1;fill-rule:nonzero;stroke:none"
   transform="translate(2187.04,-4395.2002)"><tspan
     id="tspan88"
     y="0"
     x="0 180.224 363.72479 455.47519 638.97601 819.20001 910.95038 1094.4512 1274.6752 1458.176">25/03/2025</tspan></text>
</g><g
         transform="matrix(0,0.044919,-0.044922,0,0,0)"
         id="g92"><text
   id="text96"
   style="font-variant:normal;font-weight:normal;font-size:327.68px;font-family:F1;-inkscape-font-specification:F1;writing-mode:lr-tb;fill:#000000;fill-opacity:1;fill-rule:nonzero;stroke:none"
   transform="translate(2187.04,-5018.5601)"><tspan
     id="tspan94"
     y="0"
     x="0 180.224 363.72479 455.47519 638.97601 819.20001 910.95038 1094.4512 1274.6752 1458.176">26/03/2025</tspan></text>
</g><g
         transform="matrix(0,0.044919,-0.044922,0,0,0)"
         id="g98"><text
   id="text102"
   style="font-variant:normal;font-weight:normal;font-size:327.68px;font-family:F1;-inkscape-font-specification:F1;writing-mode:lr-tb;fill:#000000;fill-opacity:1;fill-rule:nonzero;stroke:none"
   transform="translate(2187.04,-5616.7998)"><tspan
     id="tspan100"
     y="0"
     x="0 180.224 363.72479 455.47519 638.97601 819.20001 910.95038 1094.4512 1274.6752 1458.176">27/03/2025</tspan></text>
</g><g
         transform="matrix(0,0.044919,-0.044922,0,0,0)"
         id="g104"><text
   id="text108"
   style="font-variant:normal;font-weight:normal;font-size:327.68px;font-family:F1;-inkscape-font-specification:F1;writing-mode:lr-tb;fill:#000000;fill-opacity:1;fill-rule:nonzero;stroke:none"
   transform="translate(2187.04,-6215.2002)"><tspan
     id="tspan106"
     y="0"
     x="0 180.224 363.72479 455.47519 638.97601 819.20001 910.95038 1094.4512 1274.6752 1458.176">28/03/2025</tspan></text>
</g><g
         transform="matrix(0,0.044919,-0.044922,0,0,0)"
         id="g110"><text
   id="text114"
   style="font-variant:normal;font-weight:normal;font-size:327.68px;font-family:F1;-inkscape-font-specification:F1;writing-mode:lr-tb;fill:#000000;fill-opacity:1;fill-rule:nonzero;stroke:none"
   transform="translate(2187.04,-6813.6001)"><tspan
     id="tspan112"
     y="0"
     x="0 180.224 363.72479 455.47519 638.97601 819.20001 910.95038 1094.4512 1274.6752 1458.176">29/03/2025</tspan></text>
</g><g
         transform="matrix(0,0.044919,-0.044922,0,0,0)"
         id="g116"><text
   id="text120"
   style="font-variant:normal;font-weight:normal;font-size:327.68px;font-family:F1;-inkscape-font-specification:F1;writing-mode:lr-tb;fill:#000000;fill-opacity:1;fill-rule:nonzero;stroke:none"
   transform="translate(2187.04,-7422.7202)"><tspan
     id="tspan118"
     y="0"
     x="0 180.224 363.72479 455.47519 638.97601 819.20001 910.95038 1094.4512 1274.6752 1458.176">30/03/2025</tspan></text>
</g><g
         transform="matrix(0,0.044919,-0.044922,0,0,0)"
         id="g122"><text
   id="text126"
   style="font-variant:normal;font-weight:normal;font-size:327.68px;font-family:F1;-inkscape-font-specification:F1;writing-mode:lr-tb;fill:#000000;fill-opacity:1;fill-rule:nonzero;stroke:none"
   transform="translate(2187.04,-8035.3599)"><tspan
     id="tspan124"
     y="0"
     x="0 180.224 363.72479 455.47519 638.97601 819.20001 910.95038 1094.4512 1274.6752 1458.176">31/03/2025</tspan></text>
</g><g
         transform="matrix(0,0.044919,-0.044922,0,0,0)"
         id="g128"><text
   id="text132"
   style="font-variant:normal;font-weight:normal;font-size:327.68px;font-family:F1;-inkscape-font-specification:F1;writing-mode:lr-tb;fill:#000000;fill-opacity:1;fill-rule:nonzero;stroke:none"
   transform="translate(2187.04,-8655.04)"><tspan
     id="tspan130"
     y="0"
     x="0 180.224 363.72479 455.47519 638.97601 819.20001 910.95038 1094.4512 1274.6752 1458.176">01/04/2025</tspan></text>
</g><g
         transform="matrix(0,0.044919,-0.044922,0,0,0)"
         id="g134"><text
   id="text138"
   style="font-variant:normal;font-weight:normal;font-size:327.68px;font-family:F1;-inkscape-font-specification:F1;writing-mode:lr-tb;fill:#000000;fill-opacity:1;fill-rule:nonzero;stroke:none"
   transform="translate(2187.04,-9278.4004)"><tspan
     id="tspan136"
     y="0"
     x="0 180.224 363.72479 455.47519 638.97601 819.20001 910.95038 1094.4512 1274.6752 1458.176">02/04/2025</tspan></text>
</g><g
         transform="matrix(0,0.044919,-0.044922,0,0,0)"
         id="g140"><text
   id="text144"
   style="font-variant:normal;font-weight:normal;font-size:327.68px;font-family:F1;-inkscape-font-specification:F1;writing-mode:lr-tb;fill:#000000;fill-opacity:1;fill-rule:nonzero;stroke:none"
   transform="translate(2187.04,-9876.6396)"><tspan
     id="tspan142"
     y="0"
     x="0 180.224 363.72479 455.47519 638.97601 819.20001 910.95038 1094.4512 1274.6752 1458.176">03/04/2025</tspan></text>
</g><g
         transform="matrix(0,0.044919,-0.044922,0,0,0)"
         id="g146"><text
   id="text150"
   style="font-variant:normal;font-weight:normal;font-size:327.68px;font-family:F1;-inkscape-font-specification:F1;writing-mode:lr-tb;fill:#000000;fill-opacity:1;fill-rule:nonzero;stroke:none"
   transform="translate(2187.04,-10475)"><tspan
     id="tspan148"
     y="0"
     x="0 180.224 363.72479 455.47519 638.97601 819.20001 910.95038 1094.4512 1274.6752 1458.176">04/04/2025</tspan></text>
</g><g
         transform="matrix(0,0.044919,-0.044922,0,0,0)"
         id="g152"><text
   id="text156"
   style="font-variant:normal;font-weight:normal;font-size:327.68px;font-family:F1;-inkscape-font-specification:F1;writing-mode:lr-tb;fill:#000000;fill-opacity:1;fill-rule:nonzero;stroke:none"
   transform="translate(2187.04,-11073.4)"><tspan
     id="tspan154"
     y="0"
     x="0 180.224 363.72479 455.47519 638.97601 819.20001 910.95038 1094.4512 1274.6752 1458.176">05/04/2025</tspan></text>
</g><g
         transform="matrix(0,0.044919,-0.044922,0,0,0)"
         id="g158"><text
   id="text162"
   style="font-variant:normal;font-weight:normal;font-size:327.68px;font-family:F1;-inkscape-font-specification:F1;writing-mode:lr-tb;fill:#000000;fill-opacity:1;fill-rule:nonzero;stroke:none"
   transform="translate(2187.04,-11682.6)"><tspan
     id="tspan160"
     y="0"
     x="0 180.224 363.72479 455.47519 638.97601 819.20001 910.95038 1094.4512 1274.6752 1458.176">06/04/2025</tspan></text>
</g><g
         transform="matrix(0,0.044919,-0.044922,0,0,0)"
         id="g164"><text
   id="text168"
   style="font-variant:normal;font-weight:normal;font-size:327.68px;font-family:F1;-inkscape-font-specification:F1;writing-mode:lr-tb;fill:#000000;fill-opacity:1;fill-rule:nonzero;stroke:none"
   transform="translate(2187.04,-12295.2)"><tspan
     id="tspan166"
     y="0"
     x="0 180.224 363.72479 455.47519 638.97601 819.20001 910.95038 1094.4512 1274.6752 1458.176">07/04/2025</tspan></text>
</g><g
         transform="matrix(0,0.044919,-0.044922,0,0,0)"
         id="g170"><text
   id="text174"
   style="font-variant:normal;font-weight:normal;font-size:327.68px;font-family:F1;-inkscape-font-specification:F1;writing-mode:lr-tb;fill:#000000;fill-opacity:1;fill-rule:nonzero;stroke:none"
   transform="translate(2187.04,-12914.9)"><tspan
     id="tspan172"
     y="0"
     x="0 180.224 363.72479 455.47519 638.97601 819.20001 910.95038 1094.4512 1274.6752 1458.176">08/04/2025</tspan></text>
</g><g
         transform="matrix(0,0.044919,-0.044922,0,0,0)"
         id="g176"><text
   id="text180"
   style="font-variant:normal;font-weight:normal;font-size:327.68px;font-family:F1;-inkscape-font-specification:F1;writing-mode:lr-tb;fill:#000000;fill-opacity:1;fill-rule:nonzero;stroke:none"
   transform="translate(2187.04,-13538.2)"><tspan
     id="tspan178"
     y="0"
     x="0 180.224 363.72479 455.47519 638.97601 819.20001 910.95038 1094.4512 1274.6752 1458.176">09/04/2025</tspan></text>
</g><g
         transform="matrix(0,0.044919,-0.044922,0,0,0)"
         id="g182"><text
   id="text186"
   style="font-variant:normal;font-weight:normal;font-size:327.68px;font-family:F1;-inkscape-font-specification:F1;writing-mode:lr-tb;fill:#000000;fill-opacity:1;fill-rule:nonzero;stroke:none"
   transform="translate(2187.04,-14136.5)"><tspan
     id="tspan184"
     y="0"
     x="0 180.224 363.72479 455.47519 638.97601 819.20001 910.95038 1094.4512 1274.6752 1458.176">10/04/2025</tspan></text>
</g><g
         transform="matrix(0,0.044919,-0.044922,0,0,0)"
         id="g188"><text
   id="text192"
   style="font-variant:normal;font-weight:normal;font-size:327.68px;font-family:F1;-inkscape-font-specification:F1;writing-mode:lr-tb;fill:#000000;fill-opacity:1;fill-rule:nonzero;stroke:none"
   transform="translate(2187.04,-14734.9)"><tspan
     id="tspan190"
     y="0"
     x="0 180.224 363.72479 455.47519 638.97601 819.20001 910.95038 1094.4512 1274.6752 1458.176">11/04/2025</tspan></text>
</g><g
         transform="matrix(0,0.044919,-0.044922,0,0,0)"
         id="g194"><text
   id="text198"
   style="font-variant:normal;font-weight:normal;font-size:327.68px;font-family:F1;-inkscape-font-specification:F1;writing-mode:lr-tb;fill:#000000;fill-opacity:1;fill-rule:nonzero;stroke:none"
   transform="translate(2187.04,-15333.3)"><tspan
     id="tspan196"
     y="0"
     x="0 180.224 363.72479 455.47519 638.97601 819.20001 910.95038 1094.4512 1274.6752 1458.176">12/04/2025</tspan></text>
</g><g
         transform="matrix(0,0.044919,-0.044922,0,0,0)"
         id="g200"><text
   id="text204"
   style="font-variant:normal;font-weight:normal;font-size:327.68px;font-family:F1;-inkscape-font-specification:F1;writing-mode:lr-tb;fill:#000000;fill-opacity:1;fill-rule:nonzero;stroke:none"
   transform="translate(2187.04,-15942.4)"><tspan
     id="tspan202"
     y="0"
     x="0 180.224 363.72479 455.47519 638.97601 819.20001 910.95038 1094.4512 1274.6752 1458.176">13/04/2025</tspan></text>
</g><g
         transform="matrix(0,0.044919,-0.044922,0,0,0)"
         id="g206"><text
   id="text210"
   style="font-variant:normal;font-weight:normal;font-size:327.68px;font-family:F1;-inkscape-font-specification:F1;writing-mode:lr-tb;fill:#000000;fill-opacity:1;fill-rule:nonzero;stroke:none"
   transform="translate(2187.04,-16555)"><tspan
     id="tspan208"
     y="0"
     x="0 180.224 363.72479 455.47519 638.97601 819.20001 910.95038 1094.4512 1274.6752 1458.176">14/04/2025</tspan></text>
</g><g
         transform="matrix(0,0.044919,-0.044922,0,0,0)"
         id="g212"><text
   id="text216"
   style="font-variant:normal;font-weight:normal;font-size:327.68px;font-family:F1;-inkscape-font-specification:F1;writing-mode:lr-tb;fill:#000000;fill-opacity:1;fill-rule:nonzero;stroke:none"
   transform="translate(2187.04,-17174.699)"><tspan
     id="tspan214"
     y="0"
     x="0 180.224 363.72479 455.47519 638.97601 819.20001 910.95038 1094.4512 1274.6752 1458.176">15/04/2025</tspan></text>
</g><g
         transform="matrix(0,0.044919,-0.044922,0,0,0)"
         id="g218"><text
   id="text222"
   style="font-variant:normal;font-weight:normal;font-size:327.68px;font-family:F1;-inkscape-font-specification:F1;writing-mode:lr-tb;fill:#000000;fill-opacity:1;fill-rule:nonzero;stroke:none"
   transform="translate(2187.04,-17798.1)"><tspan
     id="tspan220"
     y="0"
     x="0 180.224 363.72479 455.47519 638.97601 819.20001 910.95038 1094.4512 1274.6752 1458.176">16/04/2025</tspan></text>
</g><g
         transform="matrix(0,0.044919,-0.044922,0,0,0)"
         id="g224"><text
   id="text228"
   style="font-variant:normal;font-weight:normal;font-size:327.68px;font-family:F1;-inkscape-font-specification:F1;writing-mode:lr-tb;fill:#000000;fill-opacity:1;fill-rule:nonzero;stroke:none"
   transform="translate(2187.04,-18396.301)"><tspan
     id="tspan226"
     y="0"
     x="0 180.224 363.72479 455.47519 638.97601 819.20001 910.95038 1094.4512 1274.6752 1458.176">17/04/2025</tspan></text>
</g><g
         transform="matrix(0,0.044919,-0.044922,0,0,0)"
         id="g230"><text
   id="text234"
   style="font-variant:normal;font-weight:normal;font-size:327.68px;font-family:F1;-inkscape-font-specification:F1;writing-mode:lr-tb;fill:#000000;fill-opacity:1;fill-rule:nonzero;stroke:none"
   transform="translate(2187.04,-18994.699)"><tspan
     id="tspan232"
     y="0"
     x="0 180.224 363.72479 455.47519 638.97601 819.20001 910.95038 1094.4512 1274.6752 1458.176">18/04/2025</tspan></text>
</g><g
         transform="matrix(0,0.044919,-0.044922,0,0,0)"
         id="g236"><text
   id="text240"
   style="font-variant:normal;font-weight:normal;font-size:327.68px;font-family:F1;-inkscape-font-specification:F1;writing-mode:lr-tb;fill:#000000;fill-opacity:1;fill-rule:nonzero;stroke:none"
   transform="translate(2187.04,-19593.1)"><tspan
     id="tspan238"
     y="0"
     x="0 180.224 363.72479 455.47519 638.97601 819.20001 910.95038 1094.4512 1274.6752 1458.176">19/04/2025</tspan></text>
</g><g
         transform="matrix(0,0.044919,-0.044922,0,0,0)"
         id="g242"><text
   id="text246"
   style="font-variant:normal;font-weight:normal;font-size:327.68px;font-family:F1;-inkscape-font-specification:F1;writing-mode:lr-tb;fill:#000000;fill-opacity:1;fill-rule:nonzero;stroke:none"
   transform="translate(2187.04,-20202.199)"><tspan
     id="tspan244"
     y="0"
     x="0 180.224 363.72479 455.47519 638.97601 819.20001 910.95038 1094.4512 1274.6752 1458.176">20/04/2025</tspan></text>
</g><g
         transform="matrix(0,0.044919,-0.044922,0,0,0)"
         id="g248"><text
   id="text252"
   style="font-variant:normal;font-weight:normal;font-size:327.68px;font-family:F1;-inkscape-font-specification:F1;writing-mode:lr-tb;fill:#000000;fill-opacity:1;fill-rule:nonzero;stroke:none"
   transform="translate(2187.04,-20814.9)"><tspan
     id="tspan250"
     y="0"
     x="0 180.224 363.72479 455.47519 638.97601 819.20001 910.95038 1094.4512 1274.6752 1458.176">21/04/2025</tspan></text>
</g><g
         transform="matrix(0,0.044919,-0.044922,0,0,0)"
         id="g254"><text
   id="text258"
   style="font-variant:normal;font-weight:normal;font-size:327.68px;font-family:F1;-inkscape-font-specification:F1;writing-mode:lr-tb;fill:#000000;fill-opacity:1;fill-rule:nonzero;stroke:none"
   transform="translate(2187.04,-21434.6)"><tspan
     id="tspan256"
     y="0"
     x="0 180.224 363.72479 455.47519 638.97601 819.20001 910.95038 1094.4512 1274.6752 1458.176">22/04/2025</tspan></text>
</g><g
         transform="matrix(0,0.044919,-0.044922,0,0,0)"
         id="g260"><text
   id="text264"
   style="font-variant:normal;font-weight:normal;font-size:327.68px;font-family:F1;-inkscape-font-specification:F1;writing-mode:lr-tb;fill:#000000;fill-opacity:1;fill-rule:nonzero;stroke:none"
   transform="translate(2187.04,-22057.9)"><tspan
     id="tspan262"
     y="0"
     x="0 180.224 363.72479 455.47519 638.97601 819.20001 910.95038 1094.4512 1274.6752 1458.176">23/04/2025</tspan></text>
</g><g
         transform="matrix(0,0.044919,-0.044922,0,0,0)"
         id="g266"><text
   id="text270"
   style="font-variant:normal;font-weight:normal;font-size:327.68px;font-family:F1;-inkscape-font-specification:F1;writing-mode:lr-tb;fill:#000000;fill-opacity:1;fill-rule:nonzero;stroke:none"
   transform="translate(2187.04,-22656.199)"><tspan
     id="tspan268"
     y="0"
     x="0 180.224 363.72479 455.47519 638.97601 819.20001 910.95038 1094.4512 1274.6752 1458.176">24/04/2025</tspan></text>
</g><g
         transform="matrix(0,0.044919,-0.044922,0,0,0)"
         id="g272"><text
   id="text276"
   style="font-variant:normal;font-weight:normal;font-size:327.68px;font-family:F1;-inkscape-font-specification:F1;writing-mode:lr-tb;fill:#000000;fill-opacity:1;fill-rule:nonzero;stroke:none"
   transform="translate(2187.04,-23254.6)"><tspan
     id="tspan274"
     y="0"
     x="0 180.224 363.72479 455.47519 638.97601 819.20001 910.95038 1094.4512 1274.6752 1458.176">25/04/2025</tspan></text>
</g><g
         transform="matrix(0,0.044919,-0.044922,0,0,0)"
         id="g278"><text
   id="text282"
   style="font-variant:normal;font-weight:normal;font-size:327.68px;font-family:F1;-inkscape-font-specification:F1;writing-mode:lr-tb;fill:#000000;fill-opacity:1;fill-rule:nonzero;stroke:none"
   transform="translate(2187.04,-23853)"><tspan
     id="tspan280"
     y="0"
     x="0 180.224 363.72479 455.47519 638.97601 819.20001 910.95038 1094.4512 1274.6752 1458.176">26/04/2025</tspan></text>
</g><g
         transform="matrix(0,0.044919,-0.044922,0,0,0)"
         id="g284"><text
   id="text288"
   style="font-variant:normal;font-weight:normal;font-size:327.68px;font-family:F1;-inkscape-font-specification:F1;writing-mode:lr-tb;fill:#000000;fill-opacity:1;fill-rule:nonzero;stroke:none"
   transform="translate(2187.04,-24462.1)"><tspan
     id="tspan286"
     y="0"
     x="0 180.224 363.72479 455.47519 638.97601 819.20001 910.95038 1094.4512 1274.6752 1458.176">27/04/2025</tspan></text>
</g><g
         id="g290"><text
   id="text294"
   style="font-variant:normal;font-weight:normal;font-size:14.7191px;font-family:F1;-inkscape-font-specification:F1;writing-mode:lr-tb;fill:#000000;fill-opacity:1;fill-rule:nonzero;stroke:none"
   transform="translate(59.84,191.52)"><tspan
     id="tspan292"
     y="0"
     x="0 7.35955 28.113482 37.931007 52.650105 62.364712 79.733253 90.183807 108.28831 116.47437 134.28447 146.20695 164.60582 176.67549 191.39459 198.75414 219.50807 229.22267 243.94177 253.75929 270.98065 281.61032 299.71481 307.8103 325.62042 337.54288 355.94177 368.01141 382.73053 390.09009 410.84399 420.66153 435.38062 445.09525 462.46378 472.91434 491.01883 499.2049 517.01501 528.9375 547.33636 559.40601 574.12512 581.48468 602.23859 611.95319 626.6723 636.48981 653.71118 664.34082 682.44531 690.54083 708.35095 720.27344 738.6723 750.74194 765.46106 772.82062 793.57452 803.28912 818.00824 827.82574 845.04712 855.67676 873.78125 881.87677 899.68689 911.60938 930.00824 942.07788 956.797 964.15656 984.91046 994.72797 1009.4471 1019.1617 1036.5303 1046.9808">JuViSaDoLuMaMiJuViSaDoLuMaMiJuViSaDoLuMaMiJuViSaDoLuMaMiJuViSaDoLuMaMiJuViSaDo</tspan></text>
</g><g
         id="g296"><text
   id="text300"
   style="font-variant:normal;font-weight:normal;font-size:14.7191px;font-family:F1;-inkscape-font-specification:F1;writing-mode:lr-tb;fill:#000000;fill-opacity:1;fill-rule:nonzero;stroke:none"
   transform="translate(34.880001,209.92)"><tspan
     id="tspan298"
     y="0"
     x="0">A</tspan></text>
</g><g
         id="g302"><text
   id="text306"
   style="font-variant:normal;font-weight:normal;font-size:14.7191px;font-family:F1;-inkscape-font-specification:F1;writing-mode:lr-tb;fill:#000000;fill-opacity:1;fill-rule:nonzero;stroke:none"
   transform="translate(34.880001,228.32001)"><tspan
     id="tspan304"
     y="0"
     x="0">B</tspan></text>
</g><g
         id="g308"><text
   id="text312"
   style="font-variant:normal;font-weight:normal;font-size:14.7191px;font-family:F1;-inkscape-font-specification:F1;writing-mode:lr-tb;fill:#000000;fill-opacity:1;fill-rule:nonzero;stroke:none"
   transform="translate(34.400002,246.72)"><tspan
     id="tspan310"
     y="0"
     x="0">C</tspan></text>
</g><g
         id="g314"><text
   id="text318"
   style="font-variant:normal;font-weight:normal;font-size:14.7191px;font-family:F1;-inkscape-font-specification:F1;writing-mode:lr-tb;fill:#000000;fill-opacity:1;fill-rule:nonzero;stroke:none"
   transform="translate(34.400002,265.12)"><tspan
     id="tspan316"
     y="0"
     x="0">D</tspan></text>
</g><g
         id="g320"><text
   id="text324"
   style="font-variant:normal;font-weight:normal;font-size:14.7191px;font-family:F1;-inkscape-font-specification:F1;writing-mode:lr-tb;fill:#000000;fill-opacity:1;fill-rule:nonzero;stroke:none"
   transform="translate(34.880001,283.51999)"><tspan
     id="tspan322"
     y="0"
     x="0">E</tspan></text>
</g><g
         id="g326"><text
   id="text330"
   style="font-variant:normal;font-weight:normal;font-size:14.7191px;font-family:F1;-inkscape-font-specification:F1;writing-mode:lr-tb;fill:#000000;fill-opacity:1;fill-rule:nonzero;stroke:none"
   transform="translate(35.200001,301.92001)"><tspan
     id="tspan328"
     y="0"
     x="0">F</tspan></text>
</g><g
         id="g332"><text
   id="text336"
   style="font-variant:normal;font-weight:normal;font-size:14.7191px;font-family:F1;-inkscape-font-specification:F1;writing-mode:lr-tb;fill:#000000;fill-opacity:1;fill-rule:nonzero;stroke:none"
   transform="translate(33.919998,320.32001)"><tspan
     id="tspan334"
     y="0"
     x="0">G</tspan></text>
</g><g
         id="g338"><text
   id="text342"
   style="font-variant:normal;font-weight:normal;font-size:14.7191px;font-family:F1;-inkscape-font-specification:F1;writing-mode:lr-tb;fill:#000000;fill-opacity:1;fill-rule:nonzero;stroke:none"
   transform="translate(34.400002,338.72)"><tspan
     id="tspan340"
     y="0"
     x="0">H</tspan></text>
</g><g
         id="g344"><text
   id="text348"
   style="font-variant:normal;font-weight:normal;font-size:14.7191px;font-family:F1;-inkscape-font-specification:F1;writing-mode:lr-tb;fill:#000000;fill-opacity:1;fill-rule:nonzero;stroke:none"
   transform="translate(37.599998,357.12)"><tspan
     id="tspan346"
     y="0"
     x="0">I</tspan></text>
</g><g
         id="g350"><text
   id="text354"
   style="font-variant:normal;font-weight:normal;font-size:14.7191px;font-family:F1;-inkscape-font-specification:F1;writing-mode:lr-tb;fill:#000000;fill-opacity:1;fill-rule:nonzero;stroke:none"
   transform="translate(36,375.51999)"><tspan
     id="tspan352"
     y="0"
     x="0">J</tspan></text>
</g><g
         id="g356"><text
   id="text360"
   style="font-variant:normal;font-weight:normal;font-size:14.7191px;font-family:F1;-inkscape-font-specification:F1;writing-mode:lr-tb;fill:#000000;fill-opacity:1;fill-rule:nonzero;stroke:none"
   transform="translate(34.880001,393.92001)"><tspan
     id="tspan358"
     y="0"
     x="0">K</tspan></text>
</g><g
         id="g362"><text
   id="text366"
   style="font-variant:normal;font-weight:normal;font-size:14.7191px;font-family:F1;-inkscape-font-specification:F1;writing-mode:lr-tb;fill:#000000;fill-opacity:1;fill-rule:nonzero;stroke:none"
   transform="translate(35.68,412.32001)"><tspan
     id="tspan364"
     y="0"
     x="0">L</tspan></text>
</g><g
         id="g368"><text
   id="text372"
   style="font-variant:normal;font-weight:normal;font-size:14.7191px;font-family:F1;-inkscape-font-specification:F1;writing-mode:lr-tb;fill:#000000;fill-opacity:1;fill-rule:nonzero;stroke:none"
   transform="translate(33.759998,430.72)"><tspan
     id="tspan370"
     y="0"
     x="0">M</tspan></text>
</g><g
         id="g374"><text
   id="text378"
   style="font-variant:normal;font-weight:normal;font-size:14.7191px;font-family:F1;-inkscape-font-specification:F1;writing-mode:lr-tb;fill:#000000;fill-opacity:1;fill-rule:nonzero;stroke:none"
   transform="translate(34.400002,449.12)"><tspan
     id="tspan376"
     y="0"
     x="0">N</tspan></text>
</g><g
         id="g380"><text
   id="text384"
   style="font-variant:normal;font-weight:normal;font-size:14.7191px;font-family:F1;-inkscape-font-specification:F1;writing-mode:lr-tb;fill:#000000;fill-opacity:1;fill-rule:nonzero;stroke:none"
   transform="translate(33.919998,467.51999)"><tspan
     id="tspan382"
     y="0"
     x="0">O</tspan></text>
</g><g
         id="g386"><text
   id="text390"
   style="font-variant:normal;font-weight:normal;font-size:14.7191px;font-family:F1;-inkscape-font-specification:F1;writing-mode:lr-tb;fill:#000000;fill-opacity:1;fill-rule:nonzero;stroke:none"
   transform="translate(34.880001,485.92001)"><tspan
     id="tspan388"
     y="0"
     x="0">P</tspan></text>
</g><g
         id="g392"><text
   id="text396"
   style="font-variant:normal;font-weight:normal;font-size:14.7191px;font-family:F1;-inkscape-font-specification:F1;writing-mode:lr-tb;fill:#000000;fill-opacity:1;fill-rule:nonzero;stroke:none"
   transform="translate(33.919998,504.32001)"><tspan
     id="tspan394"
     y="0"
     x="0">Q</tspan></text>
</g><g
         id="g398"><text
   id="text402"
   style="font-variant:normal;font-weight:normal;font-size:14.7191px;font-family:F1;-inkscape-font-specification:F1;writing-mode:lr-tb;fill:#000000;fill-opacity:1;fill-rule:nonzero;stroke:none"
   transform="translate(34.400002,522.71997)"><tspan
     id="tspan400"
     y="0"
     x="0">R</tspan></text>
</g><g
         id="g404"><text
   id="text408"
   style="font-variant:normal;font-weight:normal;font-size:14.7191px;font-family:F1;-inkscape-font-specification:F1;writing-mode:lr-tb;fill:#000000;fill-opacity:1;fill-rule:nonzero;stroke:none"
   transform="translate(34.880001,541.12)"><tspan
     id="tspan406"
     y="0"
     x="0">S</tspan></text>
</g><g
         id="g410"><text
   id="text414"
   style="font-variant:normal;font-weight:normal;font-size:14.7191px;font-family:F1;-inkscape-font-specification:F1;writing-mode:lr-tb;fill:#000000;fill-opacity:1;fill-rule:nonzero;stroke:none"
   transform="translate(35.200001,559.52002)"><tspan
     id="tspan412"
     y="0"
     x="0">T</tspan></text>
</g><g
         id="g416"><text
   id="text420"
   style="font-variant:normal;font-weight:normal;font-size:14.7191px;font-family:F1;-inkscape-font-specification:F1;writing-mode:lr-tb;fill:#000000;fill-opacity:1;fill-rule:nonzero;stroke:none"
   transform="translate(34.400002,577.91998)"><tspan
     id="tspan418"
     y="0"
     x="0">U</tspan></text>
</g><g
         id="g422"><text
   id="text426"
   style="font-variant:normal;font-weight:normal;font-size:14.7191px;font-family:F1;-inkscape-font-specification:F1;writing-mode:lr-tb;fill:#000000;fill-opacity:1;fill-rule:nonzero;stroke:none"
   transform="translate(34.880001,596.32001)"><tspan
     id="tspan424"
     y="0"
     x="0">V</tspan></text>
</g><g
         id="g428"><text
   id="text432"
   style="font-variant:normal;font-weight:normal;font-size:14.7191px;font-family:F1;-inkscape-font-specification:F1;writing-mode:lr-tb;fill:#000000;fill-opacity:1;fill-rule:nonzero;stroke:none"
   transform="translate(32.48,614.71997)"><tspan
     id="tspan430"
     y="0"
     x="0">W</tspan></text>
</g><g
         id="g434"><text
   id="text438"
   style="font-variant:normal;font-weight:normal;font-size:14.7191px;font-family:F1;-inkscape-font-specification:F1;writing-mode:lr-tb;fill:#000000;fill-opacity:1;fill-rule:nonzero;stroke:none"
   transform="translate(34.720001,633.12)"><tspan
     id="tspan436"
     y="0"
     x="0">X</tspan></text>
</g><g
         id="g440"><text
   id="text444"
   style="font-variant:normal;font-weight:normal;font-size:14.7191px;font-family:F1;-inkscape-font-specification:F1;writing-mode:lr-tb;fill:#000000;fill-opacity:1;fill-rule:nonzero;stroke:none"
   transform="translate(34.880001,651.52002)"><tspan
     id="tspan442"
     y="0"
     x="0">Y</tspan></text>
</g><g
         id="g446"><text
   id="text450"
   style="font-variant:normal;font-weight:normal;font-size:14.7191px;font-family:F1;-inkscape-font-specification:F1;writing-mode:lr-tb;fill:#000000;fill-opacity:1;fill-rule:nonzero;stroke:none"
   transform="translate(35.200001,669.91998)"><tspan
     id="tspan448"
     y="0"
     x="0">Z</tspan></text>
</g><g
         id="g452"><text
   id="text456"
   style="font-variant:normal;font-weight:normal;font-size:14.7191px;font-family:F1;-inkscape-font-specification:F1;writing-mode:lr-tb;fill:#000000;fill-opacity:1;fill-rule:nonzero;stroke:none"
   transform="translate(29.92,688.32001)"><tspan
     id="tspan454"
     y="0"
     x="0 9.7146063">AA</tspan></text>
</g><g
         id="g458"><text
   id="text462"
   style="font-variant:normal;font-weight:normal;font-size:14.7191px;font-family:F1;-inkscape-font-specification:F1;writing-mode:lr-tb;fill:#000000;fill-opacity:1;fill-rule:nonzero;stroke:none"
   transform="translate(29.92,706.71997)"><tspan
     id="tspan460"
     y="0"
     x="0 9.7146063">AB</tspan></text>
</g><g
         id="g464"><text
   id="text468"
   style="font-variant:normal;font-weight:normal;font-size:14.7191px;font-family:F1;-inkscape-font-specification:F1;writing-mode:lr-tb;fill:#000000;fill-opacity:1;fill-rule:nonzero;stroke:none"
   transform="translate(29.6,725.12)"><tspan
     id="tspan466"
     y="0"
     x="0 9.7146063">AC</tspan></text>
</g><g
         id="g470"><g
           clip-path="url(#clipPath476)"
           id="g472"><text
   id="text480"
   style="font-variant:normal;font-weight:normal;font-size:14.7191px;font-family:F2;-inkscape-font-specification:F2;writing-mode:lr-tb;fill:#000000;fill-opacity:1;fill-rule:nonzero;stroke:none"
   transform="translate(198.39999,87.199997)"><tspan
     id="tspan478"
     y="0"
     x="0 12.584543 19.63505 24.766611 30.507059">Marzo</tspan></text>
</g></g><g
         id="g482"><g
           clip-path="url(#clipPath488)"
           id="g484"><text
   id="text492"
   style="font-variant:normal;font-weight:normal;font-size:14.7191px;font-family:F2;-inkscape-font-specification:F2;writing-mode:lr-tb;fill:#000000;fill-opacity:1;fill-rule:nonzero;stroke:none"
   transform="translate(736.32001,87.199997)"><tspan
     id="tspan490"
     y="0"
     x="0 8.5166664 16.170599 21.30216 24.680079">Abril</tspan></text>
</g></g><g
         id="g494"><path
           id="path496"
           style="fill:#000000;fill-opacity:1;fill-rule:evenodd;stroke:none"
           d="m 24,72 h 1.280001 V 729.76001 H 24 Z m 28.959999,1.279999 h 1.280003 V 729.76001 h -1.280003 z m 326.880001,0 h 1.28 V 729.76001 h -1.28 z m 738.56,0 h 1.2801 V 729.76001 H 1118.4 Z m -1038.560004,19.36 h 1.280007 V 729.76001 h -1.280007 z m 26.880004,0 H 108 V 729.76001 h -1.28 z m 26.88001,0 H 134.88 V 729.76001 h -1.27999 z m 28,0 H 162.88 V 729.76001 h -1.27999 z m 26.87999,0 h 1.27999 V 729.76001 H 188.48 Z m 28.96,0 h 1.28 V 729.76001 h -1.28 z m 26.88001,0 h 1.28 V 729.76001 h -1.28 z m 26.88,0 h 1.28 V 729.76001 h -1.28 z m 26.87998,0 h 1.28 V 729.76001 h -1.28 z m 26.88,0 h 1.28 V 729.76001 h -1.28 z m 28,0 h 1.28 V 729.76001 h -1.28 z m 55.84,0 h 1.28 V 729.76001 h -1.28 z m 26.88,0 h 1.28 V 729.76001 h -1.28 z m 26.88001,0 h 1.28 V 729.76001 h -1.28 z m 26.88,0 h 1.28 V 729.76001 h -1.28 z m 26.88001,0 h 1.27997 V 729.76001 h -1.27997 z m 28,0 h 1.27997 V 729.76001 h -1.27997 z m 26.88,0 h 1.27997 V 729.76001 h -1.27997 z m 28.95996,0 H 601.44 V 729.76001 h -1.28003 z m 26.88001,0 h 1.28003 V 729.76001 h -1.28003 z m 26.88,0 h 1.28003 V 729.76001 h -1.28003 z m 26.88001,0 h 1.28003 V 729.76001 h -1.28003 z m 26.88,0 h 1.28003 V 729.76001 h -1.28003 z m 28,0 h 1.28003 V 729.76001 h -1.28003 z m 26.88001,0 h 1.28003 V 729.76001 H 762.56 Z m 28.96002,0 h 1.27997 V 729.76001 h -1.27997 z m 26.88,0 h 1.27997 V 729.76001 h -1.27997 z m 26.88001,0 H 846.56 V 729.76001 h -1.27997 z m 26.87994,0 H 873.44 V 729.76001 h -1.28003 z m 26.88001,0 h 1.28003 V 729.76001 h -1.28003 z m 28,0 h 1.28003 V 729.76001 h -1.28003 z m 26.88,0 h 1.28003 V 729.76001 h -1.28003 z m 28.96002,0 h 1.27997 V 729.76001 H 982.88 Z m 26.88,0 h 1.28 V 729.76001 h -1.28 z m 26.88,0 h 1.28 V 729.76001 h -1.28 z m 26.88,0 h 1.28 V 729.76001 h -1.28 z m 26.88,0 h 1.2801 V 729.76001 H 1090.4 Z" /></g><g
         id="g498"><path
           id="path500"
           style="fill:#000000;fill-opacity:1;fill-rule:evenodd;stroke:none"
           d="M 25.280001,72 H 1119.6801 v 1.279999 H 25.280001 Z m 0,19.360001 H 1119.6801 v 1.279998 H 25.280001 Z m 0,85.119999 H 1119.6801 v 1.27999 H 25.280001 Z m 0,18.4 H 1119.6801 v 1.28 H 25.280001 Z m 0,18.4 H 1119.6801 v 1.28 H 25.280001 Z m 0,18.39999 H 1119.6801 v 1.28002 H 25.280001 Z m 0,18.40001 H 1119.6801 v 1.28 H 25.280001 Z m 0,18.40001 H 1119.6801 v 1.28 H 25.280001 Z m 0,18.39999 H 1119.6801 v 1.28 H 25.280001 Z m 0,18.4 H 1119.6801 v 1.28 H 25.280001 Z m 0,18.39999 H 1119.6801 v 1.28 H 25.280001 Z m 0,18.4 H 1119.6801 v 1.28 H 25.280001 Z m 0,18.40002 H 1119.6801 v 1.28 H 25.280001 Z m 0,18.39999 H 1119.6801 v 1.28 H 25.280001 Z m 0,18.4 H 1119.6801 v 1.28 H 25.280001 Z m 0,18.39999 H 1119.6801 v 1.28 H 25.280001 Z m 0,18.4 H 1119.6801 v 1.28 H 25.280001 Z m 0,18.40002 H 1119.6801 v 1.28 H 25.280001 Z m 0,18.39999 H 1119.6801 v 1.28 H 25.280001 Z m 0,18.4 H 1119.6801 v 1.28 H 25.280001 Z m 0,18.39999 H 1119.6801 v 1.28 H 25.280001 Z m 0,18.40003 H 1119.6801 v 1.27996 H 25.280001 Z m 0,18.39996 H 1119.6801 v 1.28003 H 25.280001 Z m 0,18.40002 H 1119.6801 v 1.27997 H 25.280001 Z m 0,18.40003 H 1119.6801 V 582.56 H 25.280001 Z m 0,18.39996 H 1119.6801 v 1.28003 H 25.280001 Z m 0,18.40003 H 1119.6801 v 1.27996 H 25.280001 Z m 0,18.39996 H 1119.6801 v 1.28003 H 25.280001 Z m 0,18.40002 H 1119.6801 v 1.27997 H 25.280001 Z m 0,18.40003 H 1119.6801 V 674.56 H 25.280001 Z m 0,18.39996 H 1119.6801 v 1.28003 H 25.280001 Z m 0,18.40003 H 1119.6801 v 1.27996 H 25.280001 Z m 0,18.39996 H 1119.6801 v 1.28003 H 25.280001 Z" /></g></g></g></svg>
