<?xml version="1.0" encoding="UTF-8" standalone="no"?>
<svg
   viewBox="0 0 795.68 657.76003"
   height="657.76001"
   width="795.67999"
   xml:space="preserve"
   id="svg2"
   version="1.1"
   sodipodi:docname="GANTT_3.SVG"
   inkscape:version="1.2.2 (732a01da63, 2022-12-09)"
   xmlns:inkscape="http://www.inkscape.org/namespaces/inkscape"
   xmlns:sodipodi="http://sodipodi.sourceforge.net/DTD/sodipodi-0.dtd"
   xmlns="http://www.w3.org/2000/svg"
   xmlns:svg="http://www.w3.org/2000/svg"
   xmlns:rdf="http://www.w3.org/1999/02/22-rdf-syntax-ns#"
   xmlns:cc="http://creativecommons.org/ns#"
   xmlns:dc="http://purl.org/dc/elements/1.1/"><sodipodi:namedview
     id="namedview4863"
     pagecolor="#505050"
     bordercolor="#ffffff"
     borderopacity="1"
     inkscape:showpageshadow="0"
     inkscape:pageopacity="0"
     inkscape:pagecheckerboard="1"
     inkscape:deskcolor="#505050"
     showgrid="false"
     inkscape:zoom="0.52647517"
     inkscape:cx="565.07888"
     inkscape:cy="490.0516"
     inkscape:window-width="1366"
     inkscape:window-height="745"
     inkscape:window-x="-8"
     inkscape:window-y="-8"
     inkscape:window-maximized="1"
     inkscape:current-layer="svg2" /><metadata
     id="metadata8"><rdf:RDF><cc:Work
         rdf:about=""><dc:format>image/svg+xml</dc:format><dc:type
           rdf:resource="http://purl.org/dc/dcmitype/StillImage" /></cc:Work></rdf:RDF></metadata><defs
     id="defs6"><clipPath
       id="clipPath382"
       clipPathUnits="userSpaceOnUse"><path
         style="clip-rule:evenodd"
         id="path380"
         d="m 764.79999,73.279999 h 26.88 v 17.919998 h -26.88 z" /></clipPath><clipPath
       id="clipPath394"
       clipPathUnits="userSpaceOnUse"><path
         style="clip-rule:evenodd"
         id="path392"
         d="m 380,73.279999 h 31.20001 V 91.199997 H 380 Z" /></clipPath></defs><g
     id="g5177"
     transform="translate(-24,-72.000069)"><g
       transform="translate(0,6.9397335e-5)"
       id="g10"><g
         id="g12"><path
           id="path14"
           style="fill:#ee0000;fill-opacity:1;fill-rule:nonzero;stroke:none"
           d="M 53.599998,545.12 H 819.20001 v 18.55999 H 53.599998 Z" /></g><g
         id="g16"><path
           id="path18"
           style="fill:#ee0000;fill-opacity:1;fill-rule:nonzero;stroke:none"
           d="M 53.599998,563.52002 H 245.11999 v 18.56 H 53.599998 Z" /></g><g
         id="g20"><path
           id="path22"
           style="fill:#ee0000;fill-opacity:1;fill-rule:nonzero;stroke:none"
           d="m 218.08,581.91998 h 409.76003 v 18.56 H 218.08 Z" /></g><g
         id="g24"><path
           id="path26"
           style="fill:#ee0000;fill-opacity:1;fill-rule:nonzero;stroke:none"
           d="M 600.79999,600.32001 H 819.20001 V 618.88 H 600.79999 Z" /></g><g
         transform="matrix(0,0.044919,-0.044922,0,0,0)"
         id="g28"><text
   id="text32"
   style="font-variant:normal;font-weight:normal;font-size:327.68px;font-family:F1;-inkscape-font-specification:F1;writing-mode:lr-tb;fill:#000000;fill-opacity:1;fill-rule:nonzero;stroke:none"
   transform="translate(2187.04,-1356.96)"><tspan
     id="tspan30"
     y="0"
     x="0 180.224 363.72479 455.47519 638.97601 819.20001 910.95038 1094.4512 1274.6752 1458.176">06/06/2025</tspan></text>
</g><g
         transform="matrix(0,0.044919,-0.044922,0,0,0)"
         id="g34"><text
   id="text38"
   style="font-variant:normal;font-weight:normal;font-size:327.68px;font-family:F1;-inkscape-font-specification:F1;writing-mode:lr-tb;fill:#000000;fill-opacity:1;fill-rule:nonzero;stroke:none"
   transform="translate(2187.04,-1955.36)"><tspan
     id="tspan36"
     y="0"
     x="0 180.224 363.72479 455.47519 638.97601 819.20001 910.95038 1094.4512 1274.6752 1458.176">07/06/2025</tspan></text>
</g><g
         transform="matrix(0,0.044919,-0.044922,0,0,0)"
         id="g40"><text
   id="text44"
   style="font-variant:normal;font-weight:normal;font-size:327.68px;font-family:F1;-inkscape-font-specification:F1;writing-mode:lr-tb;fill:#000000;fill-opacity:1;fill-rule:nonzero;stroke:none"
   transform="translate(2187.04,-2564.48)"><tspan
     id="tspan42"
     y="0"
     x="0 180.224 363.72479 455.47519 638.97601 819.20001 910.95038 1094.4512 1274.6752 1458.176">08/06/2025</tspan></text>
</g><g
         transform="matrix(0,0.044919,-0.044922,0,0,0)"
         id="g46"><text
   id="text50"
   style="font-variant:normal;font-weight:normal;font-size:327.68px;font-family:F1;-inkscape-font-specification:F1;writing-mode:lr-tb;fill:#000000;fill-opacity:1;fill-rule:nonzero;stroke:none"
   transform="translate(2187.04,-3177.1201)"><tspan
     id="tspan48"
     y="0"
     x="0 180.224 363.72479 455.47519 638.97601 819.20001 910.95038 1094.4512 1274.6752 1458.176">09/06/2025</tspan></text>
</g><g
         transform="matrix(0,0.044919,-0.044922,0,0,0)"
         id="g52"><text
   id="text56"
   style="font-variant:normal;font-weight:normal;font-size:327.68px;font-family:F1;-inkscape-font-specification:F1;writing-mode:lr-tb;fill:#000000;fill-opacity:1;fill-rule:nonzero;stroke:none"
   transform="translate(2187.04,-3796.8)"><tspan
     id="tspan54"
     y="0"
     x="0 180.224 363.72479 455.47519 638.97601 819.20001 910.95038 1094.4512 1274.6752 1458.176">10/06/2025</tspan></text>
</g><g
         transform="matrix(0,0.044919,-0.044922,0,0,0)"
         id="g58"><text
   id="text62"
   style="font-variant:normal;font-weight:normal;font-size:327.68px;font-family:F1;-inkscape-font-specification:F1;writing-mode:lr-tb;fill:#000000;fill-opacity:1;fill-rule:nonzero;stroke:none"
   transform="translate(2187.04,-4420.1602)"><tspan
     id="tspan60"
     y="0"
     x="0 180.224 363.72479 455.47519 638.97601 819.20001 910.95038 1094.4512 1274.6752 1458.176">11/06/2025</tspan></text>
</g><g
         transform="matrix(0,0.044919,-0.044922,0,0,0)"
         id="g64"><text
   id="text68"
   style="font-variant:normal;font-weight:normal;font-size:327.68px;font-family:F1;-inkscape-font-specification:F1;writing-mode:lr-tb;fill:#000000;fill-opacity:1;fill-rule:nonzero;stroke:none"
   transform="translate(2187.04,-5018.5601)"><tspan
     id="tspan66"
     y="0"
     x="0 180.224 363.72479 455.47519 638.97601 819.20001 910.95038 1094.4512 1274.6752 1458.176">12/06/2025</tspan></text>
</g><g
         transform="matrix(0,0.044919,-0.044922,0,0,0)"
         id="g70"><text
   id="text74"
   style="font-variant:normal;font-weight:normal;font-size:327.68px;font-family:F1;-inkscape-font-specification:F1;writing-mode:lr-tb;fill:#000000;fill-opacity:1;fill-rule:nonzero;stroke:none"
   transform="translate(2187.04,-5616.7998)"><tspan
     id="tspan72"
     y="0"
     x="0 180.224 363.72479 455.47519 638.97601 819.20001 910.95038 1094.4512 1274.6752 1458.176">13/06/2025</tspan></text>
</g><g
         transform="matrix(0,0.044919,-0.044922,0,0,0)"
         id="g76"><text
   id="text80"
   style="font-variant:normal;font-weight:normal;font-size:327.68px;font-family:F1;-inkscape-font-specification:F1;writing-mode:lr-tb;fill:#000000;fill-opacity:1;fill-rule:nonzero;stroke:none"
   transform="translate(2187.04,-6215.2002)"><tspan
     id="tspan78"
     y="0"
     x="0 180.224 363.72479 455.47519 638.97601 819.20001 910.95038 1094.4512 1274.6752 1458.176">14/06/2025</tspan></text>
</g><g
         transform="matrix(0,0.044919,-0.044922,0,0,0)"
         id="g82"><text
   id="text86"
   style="font-variant:normal;font-weight:normal;font-size:327.68px;font-family:F1;-inkscape-font-specification:F1;writing-mode:lr-tb;fill:#000000;fill-opacity:1;fill-rule:nonzero;stroke:none"
   transform="translate(2187.04,-6824.3198)"><tspan
     id="tspan84"
     y="0"
     x="0 180.224 363.72479 455.47519 638.97601 819.20001 910.95038 1094.4512 1274.6752 1458.176">15/06/2025</tspan></text>
</g><g
         transform="matrix(0,0.044919,-0.044922,0,0,0)"
         id="g88"><text
   id="text92"
   style="font-variant:normal;font-weight:normal;font-size:327.68px;font-family:F1;-inkscape-font-specification:F1;writing-mode:lr-tb;fill:#000000;fill-opacity:1;fill-rule:nonzero;stroke:none"
   transform="translate(2187.04,-7436.96)"><tspan
     id="tspan90"
     y="0"
     x="0 180.224 363.72479 455.47519 638.97601 819.20001 910.95038 1094.4512 1274.6752 1458.176">16/06/2025</tspan></text>
</g><g
         transform="matrix(0,0.044919,-0.044922,0,0,0)"
         id="g94"><text
   id="text98"
   style="font-variant:normal;font-weight:normal;font-size:327.68px;font-family:F1;-inkscape-font-specification:F1;writing-mode:lr-tb;fill:#000000;fill-opacity:1;fill-rule:nonzero;stroke:none"
   transform="translate(2187.04,-8056.6401)"><tspan
     id="tspan96"
     y="0"
     x="0 180.224 363.72479 455.47519 638.97601 819.20001 910.95038 1094.4512 1274.6752 1458.176">17/06/2025</tspan></text>
</g><g
         transform="matrix(0,0.044919,-0.044922,0,0,0)"
         id="g100"><text
   id="text104"
   style="font-variant:normal;font-weight:normal;font-size:327.68px;font-family:F1;-inkscape-font-specification:F1;writing-mode:lr-tb;fill:#000000;fill-opacity:1;fill-rule:nonzero;stroke:none"
   transform="translate(2187.04,-8680)"><tspan
     id="tspan102"
     y="0"
     x="0 180.224 363.72479 455.47519 638.97601 819.20001 910.95038 1094.4512 1274.6752 1458.176">18/06/2025</tspan></text>
</g><g
         transform="matrix(0,0.044919,-0.044922,0,0,0)"
         id="g106"><text
   id="text110"
   style="font-variant:normal;font-weight:normal;font-size:327.68px;font-family:F1;-inkscape-font-specification:F1;writing-mode:lr-tb;fill:#000000;fill-opacity:1;fill-rule:nonzero;stroke:none"
   transform="translate(2187.04,-9278.4004)"><tspan
     id="tspan108"
     y="0"
     x="0 180.224 363.72479 455.47519 638.97601 819.20001 910.95038 1094.4512 1274.6752 1458.176">19/06/2025</tspan></text>
</g><g
         transform="matrix(0,0.044919,-0.044922,0,0,0)"
         id="g112"><text
   id="text116"
   style="font-variant:normal;font-weight:normal;font-size:327.68px;font-family:F1;-inkscape-font-specification:F1;writing-mode:lr-tb;fill:#000000;fill-opacity:1;fill-rule:nonzero;stroke:none"
   transform="translate(2187.04,-9876.6396)"><tspan
     id="tspan114"
     y="0"
     x="0 180.224 363.72479 455.47519 638.97601 819.20001 910.95038 1094.4512 1274.6752 1458.176">20/06/2025</tspan></text>
</g><g
         transform="matrix(0,0.044919,-0.044922,0,0,0)"
         id="g118"><text
   id="text122"
   style="font-variant:normal;font-weight:normal;font-size:327.68px;font-family:F1;-inkscape-font-specification:F1;writing-mode:lr-tb;fill:#000000;fill-opacity:1;fill-rule:nonzero;stroke:none"
   transform="translate(2187.04,-10475)"><tspan
     id="tspan120"
     y="0"
     x="0 180.224 363.72479 455.47519 638.97601 819.20001 910.95038 1094.4512 1274.6752 1458.176">21/06/2025</tspan></text>
</g><g
         transform="matrix(0,0.044919,-0.044922,0,0,0)"
         id="g124"><text
   id="text128"
   style="font-variant:normal;font-weight:normal;font-size:327.68px;font-family:F1;-inkscape-font-specification:F1;writing-mode:lr-tb;fill:#000000;fill-opacity:1;fill-rule:nonzero;stroke:none"
   transform="translate(2187.04,-11084.2)"><tspan
     id="tspan126"
     y="0"
     x="0 180.224 363.72479 455.47519 638.97601 819.20001 910.95038 1094.4512 1274.6752 1458.176">22/06/2025</tspan></text>
</g><g
         transform="matrix(0,0.044919,-0.044922,0,0,0)"
         id="g130"><text
   id="text134"
   style="font-variant:normal;font-weight:normal;font-size:327.68px;font-family:F1;-inkscape-font-specification:F1;writing-mode:lr-tb;fill:#000000;fill-opacity:1;fill-rule:nonzero;stroke:none"
   transform="translate(2187.04,-11696.8)"><tspan
     id="tspan132"
     y="0"
     x="0 180.224 363.72479 455.47519 638.97601 819.20001 910.95038 1094.4512 1274.6752 1458.176">23/06/2025</tspan></text>
</g><g
         transform="matrix(0,0.044919,-0.044922,0,0,0)"
         id="g136"><text
   id="text140"
   style="font-variant:normal;font-weight:normal;font-size:327.68px;font-family:F1;-inkscape-font-specification:F1;writing-mode:lr-tb;fill:#000000;fill-opacity:1;fill-rule:nonzero;stroke:none"
   transform="translate(2187.04,-12316.5)"><tspan
     id="tspan138"
     y="0"
     x="0 180.224 363.72479 455.47519 638.97601 819.20001 910.95038 1094.4512 1274.6752 1458.176">24/06/2025</tspan></text>
</g><g
         transform="matrix(0,0.044919,-0.044922,0,0,0)"
         id="g142"><text
   id="text146"
   style="font-variant:normal;font-weight:normal;font-size:327.68px;font-family:F1;-inkscape-font-specification:F1;writing-mode:lr-tb;fill:#000000;fill-opacity:1;fill-rule:nonzero;stroke:none"
   transform="translate(2187.04,-12939.8)"><tspan
     id="tspan144"
     y="0"
     x="0 180.224 363.72479 455.47519 638.97601 819.20001 910.95038 1094.4512 1274.6752 1458.176">25/06/2025</tspan></text>
</g><g
         transform="matrix(0,0.044919,-0.044922,0,0,0)"
         id="g148"><text
   id="text152"
   style="font-variant:normal;font-weight:normal;font-size:327.68px;font-family:F1;-inkscape-font-specification:F1;writing-mode:lr-tb;fill:#000000;fill-opacity:1;fill-rule:nonzero;stroke:none"
   transform="translate(2187.04,-13538.2)"><tspan
     id="tspan150"
     y="0"
     x="0 180.224 363.72479 455.47519 638.97601 819.20001 910.95038 1094.4512 1274.6752 1458.176">26/06/2025</tspan></text>
</g><g
         transform="matrix(0,0.044919,-0.044922,0,0,0)"
         id="g154"><text
   id="text158"
   style="font-variant:normal;font-weight:normal;font-size:327.68px;font-family:F1;-inkscape-font-specification:F1;writing-mode:lr-tb;fill:#000000;fill-opacity:1;fill-rule:nonzero;stroke:none"
   transform="translate(2187.04,-14136.5)"><tspan
     id="tspan156"
     y="0"
     x="0 180.224 363.72479 455.47519 638.97601 819.20001 910.95038 1094.4512 1274.6752 1458.176">27/06/2025</tspan></text>
</g><g
         transform="matrix(0,0.044919,-0.044922,0,0,0)"
         id="g160"><text
   id="text164"
   style="font-variant:normal;font-weight:normal;font-size:327.68px;font-family:F1;-inkscape-font-specification:F1;writing-mode:lr-tb;fill:#000000;fill-opacity:1;fill-rule:nonzero;stroke:none"
   transform="translate(2187.04,-14734.9)"><tspan
     id="tspan162"
     y="0"
     x="0 180.224 363.72479 455.47519 638.97601 819.20001 910.95038 1094.4512 1274.6752 1458.176">28/06/2025</tspan></text>
</g><g
         transform="matrix(0,0.044919,-0.044922,0,0,0)"
         id="g166"><text
   id="text170"
   style="font-variant:normal;font-weight:normal;font-size:327.68px;font-family:F1;-inkscape-font-specification:F1;writing-mode:lr-tb;fill:#000000;fill-opacity:1;fill-rule:nonzero;stroke:none"
   transform="translate(2187.04,-15344)"><tspan
     id="tspan168"
     y="0"
     x="0 180.224 363.72479 455.47519 638.97601 819.20001 910.95038 1094.4512 1274.6752 1458.176">29/06/2025</tspan></text>
</g><g
         transform="matrix(0,0.044919,-0.044922,0,0,0)"
         id="g172"><text
   id="text176"
   style="font-variant:normal;font-weight:normal;font-size:327.68px;font-family:F1;-inkscape-font-specification:F1;writing-mode:lr-tb;fill:#000000;fill-opacity:1;fill-rule:nonzero;stroke:none"
   transform="translate(2187.04,-15956.6)"><tspan
     id="tspan174"
     y="0"
     x="0 180.224 363.72479 455.47519 638.97601 819.20001 910.95038 1094.4512 1274.6752 1458.176">30/06/2025</tspan></text>
</g><g
         transform="matrix(0,0.044919,-0.044922,0,0,0)"
         id="g178"><text
   id="text182"
   style="font-variant:normal;font-weight:normal;font-size:327.68px;font-family:F1;-inkscape-font-specification:F1;writing-mode:lr-tb;fill:#000000;fill-opacity:1;fill-rule:nonzero;stroke:none"
   transform="translate(2187.04,-16576.301)"><tspan
     id="tspan180"
     y="0"
     x="0 180.224 363.72479 455.47519 638.97601 819.20001 910.95038 1094.4512 1274.6752 1458.176">01/07/2025</tspan></text>
</g><g
         transform="matrix(0,0.044919,-0.044922,0,0,0)"
         id="g184"><text
   id="text188"
   style="font-variant:normal;font-weight:normal;font-size:327.68px;font-family:F1;-inkscape-font-specification:F1;writing-mode:lr-tb;fill:#000000;fill-opacity:1;fill-rule:nonzero;stroke:none"
   transform="translate(2187.04,-17199.699)"><tspan
     id="tspan186"
     y="0"
     x="0 180.224 363.72479 455.47519 638.97601 819.20001 910.95038 1094.4512 1274.6752 1458.176">02/07/2025</tspan></text>
</g><g
         transform="matrix(0,0.044919,-0.044922,0,0,0)"
         id="g190"><text
   id="text194"
   style="font-variant:normal;font-weight:normal;font-size:327.68px;font-family:F1;-inkscape-font-specification:F1;writing-mode:lr-tb;fill:#000000;fill-opacity:1;fill-rule:nonzero;stroke:none"
   transform="translate(2187.04,-17798.1)"><tspan
     id="tspan192"
     y="0"
     x="0 180.224 363.72479 455.47519 638.97601 819.20001 910.95038 1094.4512 1274.6752 1458.176">03/07/2025</tspan></text>
</g><g
         id="g196"><text
   id="text200"
   style="font-variant:normal;font-weight:normal;font-size:14.7191px;font-family:F1;-inkscape-font-specification:F1;writing-mode:lr-tb;fill:#000000;fill-opacity:1;fill-rule:nonzero;stroke:none"
   transform="translate(61.119999,191.52)"><tspan
     id="tspan198"
     y="0"
     x="0 9.7146063 24.433706 34.251232 51.472576 62.102242 80.206734 88.302238 106.11235 118.03482 136.4337 148.50336 163.22246 170.582 191.33594 201.05054 215.76964 225.58717 242.80852 253.43817 271.54266 279.63818 297.44827 309.37076 327.76962 339.83929 354.55841 361.91794 382.67188 392.48941 407.2085 416.9231 434.29166 444.74222 462.84671 471.03278 488.84286 500.76535 519.16425 531.23389 545.953 553.3125 574.06647 583.78107 598.50018 608.31769 625.53906 636.1687 654.27319 662.36871 680.17883 692.10126 710.50018 722.56982 737.28894 744.6485">ViSaDoLuMaMiJuViSaDoLuMaMiJuViSaDoLuMaMiJuViSaDoLuMaMiJu</tspan></text>
</g><g
         id="g202"><text
   id="text206"
   style="font-variant:normal;font-weight:normal;font-size:14.7191px;font-family:F1;-inkscape-font-specification:F1;writing-mode:lr-tb;fill:#000000;fill-opacity:1;fill-rule:nonzero;stroke:none"
   transform="translate(34.880001,209.92)"><tspan
     id="tspan204"
     y="0"
     x="0">A</tspan></text>
</g><g
         id="g208"><text
   id="text212"
   style="font-variant:normal;font-weight:normal;font-size:14.7191px;font-family:F1;-inkscape-font-specification:F1;writing-mode:lr-tb;fill:#000000;fill-opacity:1;fill-rule:nonzero;stroke:none"
   transform="translate(34.880001,228.32001)"><tspan
     id="tspan210"
     y="0"
     x="0">B</tspan></text>
</g><g
         id="g214"><text
   id="text218"
   style="font-variant:normal;font-weight:normal;font-size:14.7191px;font-family:F1;-inkscape-font-specification:F1;writing-mode:lr-tb;fill:#000000;fill-opacity:1;fill-rule:nonzero;stroke:none"
   transform="translate(34.400002,246.72)"><tspan
     id="tspan216"
     y="0"
     x="0">C</tspan></text>
</g><g
         id="g220"><text
   id="text224"
   style="font-variant:normal;font-weight:normal;font-size:14.7191px;font-family:F1;-inkscape-font-specification:F1;writing-mode:lr-tb;fill:#000000;fill-opacity:1;fill-rule:nonzero;stroke:none"
   transform="translate(34.400002,265.12)"><tspan
     id="tspan222"
     y="0"
     x="0">D</tspan></text>
</g><g
         id="g226"><text
   id="text230"
   style="font-variant:normal;font-weight:normal;font-size:14.7191px;font-family:F1;-inkscape-font-specification:F1;writing-mode:lr-tb;fill:#000000;fill-opacity:1;fill-rule:nonzero;stroke:none"
   transform="translate(34.880001,283.51999)"><tspan
     id="tspan228"
     y="0"
     x="0">E</tspan></text>
</g><g
         id="g232"><text
   id="text236"
   style="font-variant:normal;font-weight:normal;font-size:14.7191px;font-family:F1;-inkscape-font-specification:F1;writing-mode:lr-tb;fill:#000000;fill-opacity:1;fill-rule:nonzero;stroke:none"
   transform="translate(35.200001,301.92001)"><tspan
     id="tspan234"
     y="0"
     x="0">F</tspan></text>
</g><g
         id="g238"><text
   id="text242"
   style="font-variant:normal;font-weight:normal;font-size:14.7191px;font-family:F1;-inkscape-font-specification:F1;writing-mode:lr-tb;fill:#000000;fill-opacity:1;fill-rule:nonzero;stroke:none"
   transform="translate(33.919998,320.32001)"><tspan
     id="tspan240"
     y="0"
     x="0">G</tspan></text>
</g><g
         id="g244"><text
   id="text248"
   style="font-variant:normal;font-weight:normal;font-size:14.7191px;font-family:F1;-inkscape-font-specification:F1;writing-mode:lr-tb;fill:#000000;fill-opacity:1;fill-rule:nonzero;stroke:none"
   transform="translate(34.400002,338.72)"><tspan
     id="tspan246"
     y="0"
     x="0">H</tspan></text>
</g><g
         id="g250"><text
   id="text254"
   style="font-variant:normal;font-weight:normal;font-size:14.7191px;font-family:F1;-inkscape-font-specification:F1;writing-mode:lr-tb;fill:#000000;fill-opacity:1;fill-rule:nonzero;stroke:none"
   transform="translate(37.599998,357.12)"><tspan
     id="tspan252"
     y="0"
     x="0">I</tspan></text>
</g><g
         id="g256"><text
   id="text260"
   style="font-variant:normal;font-weight:normal;font-size:14.7191px;font-family:F1;-inkscape-font-specification:F1;writing-mode:lr-tb;fill:#000000;fill-opacity:1;fill-rule:nonzero;stroke:none"
   transform="translate(36,375.51999)"><tspan
     id="tspan258"
     y="0"
     x="0">J</tspan></text>
</g><g
         id="g262"><text
   id="text266"
   style="font-variant:normal;font-weight:normal;font-size:14.7191px;font-family:F1;-inkscape-font-specification:F1;writing-mode:lr-tb;fill:#000000;fill-opacity:1;fill-rule:nonzero;stroke:none"
   transform="translate(34.880001,393.92001)"><tspan
     id="tspan264"
     y="0"
     x="0">K</tspan></text>
</g><g
         id="g268"><text
   id="text272"
   style="font-variant:normal;font-weight:normal;font-size:14.7191px;font-family:F1;-inkscape-font-specification:F1;writing-mode:lr-tb;fill:#000000;fill-opacity:1;fill-rule:nonzero;stroke:none"
   transform="translate(35.68,412.32001)"><tspan
     id="tspan270"
     y="0"
     x="0">L</tspan></text>
</g><g
         id="g274"><text
   id="text278"
   style="font-variant:normal;font-weight:normal;font-size:14.7191px;font-family:F1;-inkscape-font-specification:F1;writing-mode:lr-tb;fill:#000000;fill-opacity:1;fill-rule:nonzero;stroke:none"
   transform="translate(33.759998,430.72)"><tspan
     id="tspan276"
     y="0"
     x="0">M</tspan></text>
</g><g
         id="g280"><text
   id="text284"
   style="font-variant:normal;font-weight:normal;font-size:14.7191px;font-family:F1;-inkscape-font-specification:F1;writing-mode:lr-tb;fill:#000000;fill-opacity:1;fill-rule:nonzero;stroke:none"
   transform="translate(34.400002,449.12)"><tspan
     id="tspan282"
     y="0"
     x="0">N</tspan></text>
</g><g
         id="g286"><text
   id="text290"
   style="font-variant:normal;font-weight:normal;font-size:14.7191px;font-family:F1;-inkscape-font-specification:F1;writing-mode:lr-tb;fill:#000000;fill-opacity:1;fill-rule:nonzero;stroke:none"
   transform="translate(33.919998,467.51999)"><tspan
     id="tspan288"
     y="0"
     x="0">O</tspan></text>
</g><g
         id="g292"><text
   id="text296"
   style="font-variant:normal;font-weight:normal;font-size:14.7191px;font-family:F1;-inkscape-font-specification:F1;writing-mode:lr-tb;fill:#000000;fill-opacity:1;fill-rule:nonzero;stroke:none"
   transform="translate(34.880001,485.92001)"><tspan
     id="tspan294"
     y="0"
     x="0">P</tspan></text>
</g><g
         id="g298"><text
   id="text302"
   style="font-variant:normal;font-weight:normal;font-size:14.7191px;font-family:F1;-inkscape-font-specification:F1;writing-mode:lr-tb;fill:#000000;fill-opacity:1;fill-rule:nonzero;stroke:none"
   transform="translate(33.919998,504.32001)"><tspan
     id="tspan300"
     y="0"
     x="0">Q</tspan></text>
</g><g
         id="g304"><text
   id="text308"
   style="font-variant:normal;font-weight:normal;font-size:14.7191px;font-family:F1;-inkscape-font-specification:F1;writing-mode:lr-tb;fill:#000000;fill-opacity:1;fill-rule:nonzero;stroke:none"
   transform="translate(34.400002,522.71997)"><tspan
     id="tspan306"
     y="0"
     x="0">R</tspan></text>
</g><g
         id="g310"><text
   id="text314"
   style="font-variant:normal;font-weight:normal;font-size:14.7191px;font-family:F1;-inkscape-font-specification:F1;writing-mode:lr-tb;fill:#000000;fill-opacity:1;fill-rule:nonzero;stroke:none"
   transform="translate(34.880001,541.12)"><tspan
     id="tspan312"
     y="0"
     x="0">S</tspan></text>
</g><g
         id="g316"><text
   id="text320"
   style="font-variant:normal;font-weight:normal;font-size:14.7191px;font-family:F1;-inkscape-font-specification:F1;writing-mode:lr-tb;fill:#000000;fill-opacity:1;fill-rule:nonzero;stroke:none"
   transform="translate(35.200001,559.52002)"><tspan
     id="tspan318"
     y="0"
     x="0">T</tspan></text>
</g><g
         id="g322"><text
   id="text326"
   style="font-variant:normal;font-weight:normal;font-size:14.7191px;font-family:F1;-inkscape-font-specification:F1;writing-mode:lr-tb;fill:#000000;fill-opacity:1;fill-rule:nonzero;stroke:none"
   transform="translate(34.400002,577.91998)"><tspan
     id="tspan324"
     y="0"
     x="0">U</tspan></text>
</g><g
         id="g328"><text
   id="text332"
   style="font-variant:normal;font-weight:normal;font-size:14.7191px;font-family:F1;-inkscape-font-specification:F1;writing-mode:lr-tb;fill:#000000;fill-opacity:1;fill-rule:nonzero;stroke:none"
   transform="translate(34.880001,596.32001)"><tspan
     id="tspan330"
     y="0"
     x="0">V</tspan></text>
</g><g
         id="g334"><text
   id="text338"
   style="font-variant:normal;font-weight:normal;font-size:14.7191px;font-family:F1;-inkscape-font-specification:F1;writing-mode:lr-tb;fill:#000000;fill-opacity:1;fill-rule:nonzero;stroke:none"
   transform="translate(32.48,614.71997)"><tspan
     id="tspan336"
     y="0"
     x="0">W</tspan></text>
</g><g
         id="g340"><text
   id="text344"
   style="font-variant:normal;font-weight:normal;font-size:14.7191px;font-family:F1;-inkscape-font-specification:F1;writing-mode:lr-tb;fill:#000000;fill-opacity:1;fill-rule:nonzero;stroke:none"
   transform="translate(34.720001,633.12)"><tspan
     id="tspan342"
     y="0"
     x="0">X</tspan></text>
</g><g
         id="g346"><text
   id="text350"
   style="font-variant:normal;font-weight:normal;font-size:14.7191px;font-family:F1;-inkscape-font-specification:F1;writing-mode:lr-tb;fill:#000000;fill-opacity:1;fill-rule:nonzero;stroke:none"
   transform="translate(34.880001,651.52002)"><tspan
     id="tspan348"
     y="0"
     x="0">Y</tspan></text>
</g><g
         id="g352"><text
   id="text356"
   style="font-variant:normal;font-weight:normal;font-size:14.7191px;font-family:F1;-inkscape-font-specification:F1;writing-mode:lr-tb;fill:#000000;fill-opacity:1;fill-rule:nonzero;stroke:none"
   transform="translate(35.200001,669.91998)"><tspan
     id="tspan354"
     y="0"
     x="0">Z</tspan></text>
</g><g
         id="g358"><text
   id="text362"
   style="font-variant:normal;font-weight:normal;font-size:14.7191px;font-family:F1;-inkscape-font-specification:F1;writing-mode:lr-tb;fill:#000000;fill-opacity:1;fill-rule:nonzero;stroke:none"
   transform="translate(29.92,688.32001)"><tspan
     id="tspan360"
     y="0"
     x="0 9.7146063">AA</tspan></text>
</g><g
         id="g364"><text
   id="text368"
   style="font-variant:normal;font-weight:normal;font-size:14.7191px;font-family:F1;-inkscape-font-specification:F1;writing-mode:lr-tb;fill:#000000;fill-opacity:1;fill-rule:nonzero;stroke:none"
   transform="translate(29.92,706.71997)"><tspan
     id="tspan366"
     y="0"
     x="0 9.7146063">AB</tspan></text>
</g><g
         id="g370"><text
   id="text374"
   style="font-variant:normal;font-weight:normal;font-size:14.7191px;font-family:F1;-inkscape-font-specification:F1;writing-mode:lr-tb;fill:#000000;fill-opacity:1;fill-rule:nonzero;stroke:none"
   transform="translate(29.6,725.12)"><tspan
     id="tspan372"
     y="0"
     x="0 9.7146063">AC</tspan></text>
</g><g
         id="g376"><g
           clip-path="url(#clipPath382)"
           id="g378"><text
   id="text386"
   style="font-variant:normal;font-weight:normal;font-size:14.7191px;font-family:F2;-inkscape-font-specification:F2;writing-mode:lr-tb;fill:#000000;fill-opacity:1;fill-rule:nonzero;stroke:none"
   transform="translate(764.79999,87.199997)"><tspan
     id="tspan384"
     y="0"
     x="0 4.6931505 12.347082 15.725001 19.102919">Julio</tspan></text>
</g></g><g
         id="g388"><g
           clip-path="url(#clipPath394)"
           id="g390"><text
   id="text398"
   style="font-variant:normal;font-weight:normal;font-size:14.7191px;font-family:F2;-inkscape-font-specification:F2;writing-mode:lr-tb;fill:#000000;fill-opacity:1;fill-rule:nonzero;stroke:none"
   transform="translate(380,87.199997)"><tspan
     id="tspan396"
     y="0"
     x="0 4.6931505 12.347082 20.001015 23.378933">Junio</tspan></text>
</g></g><g
         id="g400"><path
           id="path402"
           style="fill:#000000;fill-opacity:1;fill-rule:evenodd;stroke:none"
           d="m 24,72 h 1.280001 V 729.76001 H 24 Z m 28.959999,1.279999 h 1.280003 V 729.76001 h -1.280003 z m 682.719991,0 h 1.28003 V 729.76001 h -1.28003 z m 82.72003,0 h 1.27997 V 729.76001 h -1.27997 z m -738.560024,19.36 h 1.280007 V 729.76001 h -1.280007 z m 26.880004,0 H 108 V 729.76001 h -1.28 z m 28,0 H 136 V 729.76001 h -1.28 z m 26.88001,0 H 162.88 V 729.76001 h -1.27999 z m 28.95999,0 h 1.28 V 729.76001 h -1.28 z m 26.88,0 h 1.28 V 729.76001 h -1.28 z m 26.88001,0 h 1.28 V 729.76001 h -1.28 z m 26.88,0 h 1.28 V 729.76001 h -1.28 z m 26.87998,0 h 1.28 V 729.76001 h -1.28 z m 28,0 h 1.28 V 729.76001 h -1.28 z m 26.88,0 h 1.28 V 729.76001 h -1.28 z m 28.96002,0 h 1.28 V 729.76001 h -1.28 z m 26.87998,0 h 1.28 V 729.76001 h -1.28 z m 26.88,0 h 1.28 V 729.76001 h -1.28 z m 26.88001,0 h 1.28 V 729.76001 h -1.28 z m 26.88,0 h 1.28 V 729.76001 h -1.28 z m 28,0 h 1.27997 V 729.76001 H 517.44 Z m 26.88001,0 h 1.27997 V 729.76001 h -1.27997 z m 28.96002,0 H 574.56 V 729.76001 h -1.27997 z m 26.87994,0 H 601.44 V 729.76001 h -1.28003 z m 26.88001,0 h 1.28003 V 729.76001 h -1.28003 z m 26.88,0 h 1.28003 V 729.76001 h -1.28003 z m 26.88001,0 h 1.28003 V 729.76001 h -1.28003 z m 28,0 h 1.28003 V 729.76001 h -1.28003 z m 55.84002,0 h 1.27997 V 729.76001 h -1.27997 z m 26.88001,0 h 1.27997 V 729.76001 h -1.27997 z" /></g><g
         id="g404"><path
           id="path406"
           style="fill:#000000;fill-opacity:1;fill-rule:evenodd;stroke:none"
           d="M 25.280001,72 H 819.67999 v 1.279999 H 25.280001 Z m 0,19.360001 H 819.67999 v 1.279998 H 25.280001 Z m 0,85.119999 H 819.67999 v 1.27999 H 25.280001 Z m 0,18.4 H 819.67999 v 1.28 H 25.280001 Z m 0,18.4 H 819.67999 v 1.28 H 25.280001 Z m 0,18.39999 H 819.67999 v 1.28002 H 25.280001 Z m 0,18.40001 H 819.67999 v 1.28 H 25.280001 Z m 0,18.40001 H 819.67999 v 1.28 H 25.280001 Z m 0,18.39999 H 819.67999 v 1.28 H 25.280001 Z m 0,18.4 H 819.67999 v 1.28 H 25.280001 Z m 0,18.39999 H 819.67999 v 1.28 H 25.280001 Z m 0,18.4 H 819.67999 v 1.28 H 25.280001 Z m 0,18.40002 H 819.67999 v 1.28 H 25.280001 Z m 0,18.39999 H 819.67999 v 1.28 H 25.280001 Z m 0,18.4 H 819.67999 v 1.28 H 25.280001 Z m 0,18.39999 H 819.67999 v 1.28 H 25.280001 Z m 0,18.4 H 819.67999 v 1.28 H 25.280001 Z m 0,18.40002 H 819.67999 v 1.28 H 25.280001 Z m 0,18.39999 H 819.67999 v 1.28 H 25.280001 Z m 0,18.4 H 819.67999 v 1.28 H 25.280001 Z m 0,18.39999 H 819.67999 v 1.28 H 25.280001 Z m 0,18.40003 H 819.67999 v 1.27996 H 25.280001 Z m 0,18.39996 H 819.67999 v 1.28003 H 25.280001 Z m 0,18.40002 H 819.67999 v 1.27997 H 25.280001 Z m 0,18.40003 H 819.67999 V 582.56 H 25.280001 Z m 0,18.39996 H 819.67999 v 1.28003 H 25.280001 Z m 0,18.40003 H 819.67999 v 1.27996 H 25.280001 Z m 0,18.39996 H 819.67999 v 1.28003 H 25.280001 Z m 0,18.40002 H 819.67999 v 1.27997 H 25.280001 Z m 0,18.40003 H 819.67999 V 674.56 H 25.280001 Z m 0,18.39996 H 819.67999 v 1.28003 H 25.280001 Z m 0,18.40003 H 819.67999 v 1.27996 H 25.280001 Z m 0,18.39996 H 819.67999 v 1.28003 H 25.280001 Z" /></g></g></g></svg>
