<?xml version="1.0" encoding="UTF-8" standalone="no"?>
<svg
   viewBox="0 0 1096.64 657.76003"
   height="657.76001"
   width="1096.64"
   xml:space="preserve"
   id="svg2"
   version="1.1"
   sodipodi:docname="GANTT_2.SVG"
   inkscape:version="1.2.2 (732a01da63, 2022-12-09)"
   xmlns:inkscape="http://www.inkscape.org/namespaces/inkscape"
   xmlns:sodipodi="http://sodipodi.sourceforge.net/DTD/sodipodi-0.dtd"
   xmlns="http://www.w3.org/2000/svg"
   xmlns:svg="http://www.w3.org/2000/svg"
   xmlns:rdf="http://www.w3.org/1999/02/22-rdf-syntax-ns#"
   xmlns:cc="http://creativecommons.org/ns#"
   xmlns:dc="http://purl.org/dc/elements/1.1/"><sodipodi:namedview
     id="namedview4049"
     pagecolor="#505050"
     bordercolor="#ffffff"
     borderopacity="1"
     inkscape:showpageshadow="0"
     inkscape:pageopacity="0"
     inkscape:pagecheckerboard="1"
     inkscape:deskcolor="#505050"
     showgrid="false"
     inkscape:zoom="0.52647517"
     inkscape:cx="565.07888"
     inkscape:cy="490.0516"
     inkscape:window-width="1366"
     inkscape:window-height="745"
     inkscape:window-x="-8"
     inkscape:window-y="-8"
     inkscape:window-maximized="1"
     inkscape:current-layer="svg2" /><metadata
     id="metadata8"><rdf:RDF><cc:Work
         rdf:about=""><dc:format>image/svg+xml</dc:format><dc:type
           rdf:resource="http://purl.org/dc/dcmitype/StillImage" /></cc:Work></rdf:RDF></metadata><defs
     id="defs6"><clipPath
       id="clipPath464"
       clipPathUnits="userSpaceOnUse"><path
         style="clip-rule:evenodd"
         id="path462"
         d="M 81.599998,73.279999 H 109.6 V 91.199997 H 81.599998 Z" /></clipPath><clipPath
       id="clipPath476"
       clipPathUnits="userSpaceOnUse"><path
         style="clip-rule:evenodd"
         id="path474"
         d="m 542.88,73.279999 h 34.24 v 17.919998 h -34.24 z" /></clipPath><clipPath
       id="clipPath488"
       clipPathUnits="userSpaceOnUse"><path
         style="clip-rule:evenodd"
         id="path486"
         d="m 1036.16,73.279999 h 31.2 v 17.919998 h -31.2 z" /></clipPath></defs><g
     id="g4408"
     transform="translate(-24,-72.000069)"><g
       transform="translate(0,6.9397335e-5)"
       id="g10"><g
         id="g12"><path
           id="path14"
           style="fill:#ee0000;fill-opacity:1;fill-rule:nonzero;stroke:none"
           d="M 53.599998,397.92001 H 80.639999 V 434.88 H 53.599998 Z" /></g><g
         id="g16"><path
           id="path18"
           style="fill:#ee0000;fill-opacity:1;fill-rule:nonzero;stroke:none"
           d="M 53.599998,434.72 H 272 v 18.56 H 53.599998 Z" /></g><g
         id="g20"><path
           id="path22"
           style="fill:#ee0000;fill-opacity:1;fill-rule:nonzero;stroke:none"
           d="m 136.32001,453.12 h 272.16 v 18.55999 h -272.16 z" /></g><g
         id="g24"><path
           id="path26"
           style="fill:#ee0000;fill-opacity:1;fill-rule:nonzero;stroke:none"
           d="M 244.96001,471.51999 H 737.44 v 18.56 H 244.96001 Z" /></g><g
         id="g28"><path
           id="path30"
           style="fill:#ee0000;fill-opacity:1;fill-rule:nonzero;stroke:none"
           d="m 710.40002,489.92001 h 218.39997 v 18.56 H 710.40002 Z" /></g><g
         id="g32"><path
           id="path34"
           style="fill:#ee0000;fill-opacity:1;fill-rule:nonzero;stroke:none"
           d="M 519.03998,508.32001 H 737.44 V 526.88 H 519.03998 Z" /></g><g
         id="g36"><path
           id="path38"
           style="fill:#ee0000;fill-opacity:1;fill-rule:nonzero;stroke:none"
           d="m 710.40002,526.71997 h 218.39997 v 18.56006 H 710.40002 Z" /></g><g
         id="g40"><path
           id="path42"
           style="fill:#ee0000;fill-opacity:1;fill-rule:evenodd;stroke:none"
           d="M 901.76001,545.12 H 1120.16 v 36.96002 H 901.76001 Z" /></g><g
         transform="matrix(0,0.044919,-0.044922,0,0,0)"
         id="g44"><text
   id="text48"
   style="font-variant:normal;font-weight:normal;font-size:327.68px;font-family:F1;-inkscape-font-specification:F1;writing-mode:lr-tb;fill:#000000;fill-opacity:1;fill-rule:nonzero;stroke:none"
   transform="translate(2187.04,-1356.96)"><tspan
     id="tspan46"
     y="0"
     x="0 180.224 363.72479 455.47519 638.97601 819.20001 910.95038 1094.4512 1274.6752 1458.176">28/04/2025</tspan></text>
</g><g
         transform="matrix(0,0.044919,-0.044922,0,0,0)"
         id="g50"><text
   id="text54"
   style="font-variant:normal;font-weight:normal;font-size:327.68px;font-family:F1;-inkscape-font-specification:F1;writing-mode:lr-tb;fill:#000000;fill-opacity:1;fill-rule:nonzero;stroke:none"
   transform="translate(2187.04,-1976.8)"><tspan
     id="tspan52"
     y="0"
     x="0 180.224 363.72479 455.47519 638.97601 819.20001 910.95038 1094.4512 1274.6752 1458.176">29/04/2025</tspan></text>
</g><g
         transform="matrix(0,0.044919,-0.044922,0,0,0)"
         id="g56"><text
   id="text60"
   style="font-variant:normal;font-weight:normal;font-size:327.68px;font-family:F1;-inkscape-font-specification:F1;writing-mode:lr-tb;fill:#000000;fill-opacity:1;fill-rule:nonzero;stroke:none"
   transform="translate(2187.04,-2600)"><tspan
     id="tspan58"
     y="0"
     x="0 180.224 363.72479 455.47519 638.97601 819.20001 910.95038 1094.4512 1274.6752 1458.176">30/04/2025</tspan></text>
</g><g
         transform="matrix(0,0.044919,-0.044922,0,0,0)"
         id="g62"><text
   id="text66"
   style="font-variant:normal;font-weight:normal;font-size:327.68px;font-family:F1;-inkscape-font-specification:F1;writing-mode:lr-tb;fill:#000000;fill-opacity:1;fill-rule:nonzero;stroke:none"
   transform="translate(2187.04,-3198.3999)"><tspan
     id="tspan64"
     y="0"
     x="0 180.224 363.72479 455.47519 638.97601 819.20001 910.95038 1094.4512 1274.6752 1458.176">01/05/2025</tspan></text>
</g><g
         transform="matrix(0,0.044919,-0.044922,0,0,0)"
         id="g68"><text
   id="text72"
   style="font-variant:normal;font-weight:normal;font-size:327.68px;font-family:F1;-inkscape-font-specification:F1;writing-mode:lr-tb;fill:#000000;fill-opacity:1;fill-rule:nonzero;stroke:none"
   transform="translate(2187.04,-3796.8)"><tspan
     id="tspan70"
     y="0"
     x="0 180.224 363.72479 455.47519 638.97601 819.20001 910.95038 1094.4512 1274.6752 1458.176">02/05/2025</tspan></text>
</g><g
         transform="matrix(0,0.044919,-0.044922,0,0,0)"
         id="g74"><text
   id="text78"
   style="font-variant:normal;font-weight:normal;font-size:327.68px;font-family:F1;-inkscape-font-specification:F1;writing-mode:lr-tb;fill:#000000;fill-opacity:1;fill-rule:nonzero;stroke:none"
   transform="translate(2187.04,-4395.2002)"><tspan
     id="tspan76"
     y="0"
     x="0 180.224 363.72479 455.47519 638.97601 819.20001 910.95038 1094.4512 1274.6752 1458.176">03/05/2025</tspan></text>
</g><g
         transform="matrix(0,0.044919,-0.044922,0,0,0)"
         id="g80"><text
   id="text84"
   style="font-variant:normal;font-weight:normal;font-size:327.68px;font-family:F1;-inkscape-font-specification:F1;writing-mode:lr-tb;fill:#000000;fill-opacity:1;fill-rule:nonzero;stroke:none"
   transform="translate(2187.04,-5004.3198)"><tspan
     id="tspan82"
     y="0"
     x="0 180.224 363.72479 455.47519 638.97601 819.20001 910.95038 1094.4512 1274.6752 1458.176">04/05/2025</tspan></text>
</g><g
         transform="matrix(0,0.044919,-0.044922,0,0,0)"
         id="g86"><text
   id="text90"
   style="font-variant:normal;font-weight:normal;font-size:327.68px;font-family:F1;-inkscape-font-specification:F1;writing-mode:lr-tb;fill:#000000;fill-opacity:1;fill-rule:nonzero;stroke:none"
   transform="translate(2187.04,-5616.7998)"><tspan
     id="tspan88"
     y="0"
     x="0 180.224 363.72479 455.47519 638.97601 819.20001 910.95038 1094.4512 1274.6752 1458.176">05/05/2025</tspan></text>
</g><g
         transform="matrix(0,0.044919,-0.044922,0,0,0)"
         id="g92"><text
   id="text96"
   style="font-variant:normal;font-weight:normal;font-size:327.68px;font-family:F1;-inkscape-font-specification:F1;writing-mode:lr-tb;fill:#000000;fill-opacity:1;fill-rule:nonzero;stroke:none"
   transform="translate(2187.04,-6236.6401)"><tspan
     id="tspan94"
     y="0"
     x="0 180.224 363.72479 455.47519 638.97601 819.20001 910.95038 1094.4512 1274.6752 1458.176">06/05/2025</tspan></text>
</g><g
         transform="matrix(0,0.044919,-0.044922,0,0,0)"
         id="g98"><text
   id="text102"
   style="font-variant:normal;font-weight:normal;font-size:327.68px;font-family:F1;-inkscape-font-specification:F1;writing-mode:lr-tb;fill:#000000;fill-opacity:1;fill-rule:nonzero;stroke:none"
   transform="translate(2187.04,-6859.8398)"><tspan
     id="tspan100"
     y="0"
     x="0 180.224 363.72479 455.47519 638.97601 819.20001 910.95038 1094.4512 1274.6752 1458.176">07/05/2025</tspan></text>
</g><g
         transform="matrix(0,0.044919,-0.044922,0,0,0)"
         id="g104"><text
   id="text108"
   style="font-variant:normal;font-weight:normal;font-size:327.68px;font-family:F1;-inkscape-font-specification:F1;writing-mode:lr-tb;fill:#000000;fill-opacity:1;fill-rule:nonzero;stroke:none"
   transform="translate(2187.04,-7458.2402)"><tspan
     id="tspan106"
     y="0"
     x="0 180.224 363.72479 455.47519 638.97601 819.20001 910.95038 1094.4512 1274.6752 1458.176">08/05/2025</tspan></text>
</g><g
         transform="matrix(0,0.044919,-0.044922,0,0,0)"
         id="g110"><text
   id="text114"
   style="font-variant:normal;font-weight:normal;font-size:327.68px;font-family:F1;-inkscape-font-specification:F1;writing-mode:lr-tb;fill:#000000;fill-opacity:1;fill-rule:nonzero;stroke:none"
   transform="translate(2187.04,-8056.6401)"><tspan
     id="tspan112"
     y="0"
     x="0 180.224 363.72479 455.47519 638.97601 819.20001 910.95038 1094.4512 1274.6752 1458.176">09/05/2025</tspan></text>
</g><g
         transform="matrix(0,0.044919,-0.044922,0,0,0)"
         id="g116"><text
   id="text120"
   style="font-variant:normal;font-weight:normal;font-size:327.68px;font-family:F1;-inkscape-font-specification:F1;writing-mode:lr-tb;fill:#000000;fill-opacity:1;fill-rule:nonzero;stroke:none"
   transform="translate(2187.04,-8655.04)"><tspan
     id="tspan118"
     y="0"
     x="0 180.224 363.72479 455.47519 638.97601 819.20001 910.95038 1094.4512 1274.6752 1458.176">10/05/2025</tspan></text>
</g><g
         transform="matrix(0,0.044919,-0.044922,0,0,0)"
         id="g122"><text
   id="text126"
   style="font-variant:normal;font-weight:normal;font-size:327.68px;font-family:F1;-inkscape-font-specification:F1;writing-mode:lr-tb;fill:#000000;fill-opacity:1;fill-rule:nonzero;stroke:none"
   transform="translate(2187.04,-9264.1602)"><tspan
     id="tspan124"
     y="0"
     x="0 180.224 363.72479 455.47519 638.97601 819.20001 910.95038 1094.4512 1274.6752 1458.176">11/05/2025</tspan></text>
</g><g
         transform="matrix(0,0.044919,-0.044922,0,0,0)"
         id="g128"><text
   id="text132"
   style="font-variant:normal;font-weight:normal;font-size:327.68px;font-family:F1;-inkscape-font-specification:F1;writing-mode:lr-tb;fill:#000000;fill-opacity:1;fill-rule:nonzero;stroke:none"
   transform="translate(2187.04,-9876.6396)"><tspan
     id="tspan130"
     y="0"
     x="0 180.224 363.72479 455.47519 638.97601 819.20001 910.95038 1094.4512 1274.6752 1458.176">12/05/2025</tspan></text>
</g><g
         transform="matrix(0,0.044919,-0.044922,0,0,0)"
         id="g134"><text
   id="text138"
   style="font-variant:normal;font-weight:normal;font-size:327.68px;font-family:F1;-inkscape-font-specification:F1;writing-mode:lr-tb;fill:#000000;fill-opacity:1;fill-rule:nonzero;stroke:none"
   transform="translate(2187.04,-10496.5)"><tspan
     id="tspan136"
     y="0"
     x="0 180.224 363.72479 455.47519 638.97601 819.20001 910.95038 1094.4512 1274.6752 1458.176">13/05/2025</tspan></text>
</g><g
         transform="matrix(0,0.044919,-0.044922,0,0,0)"
         id="g140"><text
   id="text144"
   style="font-variant:normal;font-weight:normal;font-size:327.68px;font-family:F1;-inkscape-font-specification:F1;writing-mode:lr-tb;fill:#000000;fill-opacity:1;fill-rule:nonzero;stroke:none"
   transform="translate(2187.04,-11119.7)"><tspan
     id="tspan142"
     y="0"
     x="0 180.224 363.72479 455.47519 638.97601 819.20001 910.95038 1094.4512 1274.6752 1458.176">14/05/2025</tspan></text>
</g><g
         transform="matrix(0,0.044919,-0.044922,0,0,0)"
         id="g146"><text
   id="text150"
   style="font-variant:normal;font-weight:normal;font-size:327.68px;font-family:F1;-inkscape-font-specification:F1;writing-mode:lr-tb;fill:#000000;fill-opacity:1;fill-rule:nonzero;stroke:none"
   transform="translate(2187.04,-11718.1)"><tspan
     id="tspan148"
     y="0"
     x="0 180.224 363.72479 455.47519 638.97601 819.20001 910.95038 1094.4512 1274.6752 1458.176">15/05/2025</tspan></text>
</g><g
         transform="matrix(0,0.044919,-0.044922,0,0,0)"
         id="g152"><text
   id="text156"
   style="font-variant:normal;font-weight:normal;font-size:327.68px;font-family:F1;-inkscape-font-specification:F1;writing-mode:lr-tb;fill:#000000;fill-opacity:1;fill-rule:nonzero;stroke:none"
   transform="translate(2187.04,-12316.5)"><tspan
     id="tspan154"
     y="0"
     x="0 180.224 363.72479 455.47519 638.97601 819.20001 910.95038 1094.4512 1274.6752 1458.176">16/05/2025</tspan></text>
</g><g
         transform="matrix(0,0.044919,-0.044922,0,0,0)"
         id="g158"><text
   id="text162"
   style="font-variant:normal;font-weight:normal;font-size:327.68px;font-family:F1;-inkscape-font-specification:F1;writing-mode:lr-tb;fill:#000000;fill-opacity:1;fill-rule:nonzero;stroke:none"
   transform="translate(2187.04,-12914.9)"><tspan
     id="tspan160"
     y="0"
     x="0 180.224 363.72479 455.47519 638.97601 819.20001 910.95038 1094.4512 1274.6752 1458.176">17/05/2025</tspan></text>
</g><g
         transform="matrix(0,0.044919,-0.044922,0,0,0)"
         id="g164"><text
   id="text168"
   style="font-variant:normal;font-weight:normal;font-size:327.68px;font-family:F1;-inkscape-font-specification:F1;writing-mode:lr-tb;fill:#000000;fill-opacity:1;fill-rule:nonzero;stroke:none"
   transform="translate(2187.04,-13524)"><tspan
     id="tspan166"
     y="0"
     x="0 180.224 363.72479 455.47519 638.97601 819.20001 910.95038 1094.4512 1274.6752 1458.176">18/05/2025</tspan></text>
</g><g
         transform="matrix(0,0.044919,-0.044922,0,0,0)"
         id="g170"><text
   id="text174"
   style="font-variant:normal;font-weight:normal;font-size:327.68px;font-family:F1;-inkscape-font-specification:F1;writing-mode:lr-tb;fill:#000000;fill-opacity:1;fill-rule:nonzero;stroke:none"
   transform="translate(2187.04,-14136.5)"><tspan
     id="tspan172"
     y="0"
     x="0 180.224 363.72479 455.47519 638.97601 819.20001 910.95038 1094.4512 1274.6752 1458.176">19/05/2025</tspan></text>
</g><g
         transform="matrix(0,0.044919,-0.044922,0,0,0)"
         id="g176"><text
   id="text180"
   style="font-variant:normal;font-weight:normal;font-size:327.68px;font-family:F1;-inkscape-font-specification:F1;writing-mode:lr-tb;fill:#000000;fill-opacity:1;fill-rule:nonzero;stroke:none"
   transform="translate(2187.04,-14756.3)"><tspan
     id="tspan178"
     y="0"
     x="0 180.224 363.72479 455.47519 638.97601 819.20001 910.95038 1094.4512 1274.6752 1458.176">20/05/2025</tspan></text>
</g><g
         transform="matrix(0,0.044919,-0.044922,0,0,0)"
         id="g182"><text
   id="text186"
   style="font-variant:normal;font-weight:normal;font-size:327.68px;font-family:F1;-inkscape-font-specification:F1;writing-mode:lr-tb;fill:#000000;fill-opacity:1;fill-rule:nonzero;stroke:none"
   transform="translate(2187.04,-15379.5)"><tspan
     id="tspan184"
     y="0"
     x="0 180.224 363.72479 455.47519 638.97601 819.20001 910.95038 1094.4512 1274.6752 1458.176">21/05/2025</tspan></text>
</g><g
         transform="matrix(0,0.044919,-0.044922,0,0,0)"
         id="g188"><text
   id="text192"
   style="font-variant:normal;font-weight:normal;font-size:327.68px;font-family:F1;-inkscape-font-specification:F1;writing-mode:lr-tb;fill:#000000;fill-opacity:1;fill-rule:nonzero;stroke:none"
   transform="translate(2187.04,-15977.9)"><tspan
     id="tspan190"
     y="0"
     x="0 180.224 363.72479 455.47519 638.97601 819.20001 910.95038 1094.4512 1274.6752 1458.176">22/05/2025</tspan></text>
</g><g
         transform="matrix(0,0.044919,-0.044922,0,0,0)"
         id="g194"><text
   id="text198"
   style="font-variant:normal;font-weight:normal;font-size:327.68px;font-family:F1;-inkscape-font-specification:F1;writing-mode:lr-tb;fill:#000000;fill-opacity:1;fill-rule:nonzero;stroke:none"
   transform="translate(2187.04,-16576.301)"><tspan
     id="tspan196"
     y="0"
     x="0 180.224 363.72479 455.47519 638.97601 819.20001 910.95038 1094.4512 1274.6752 1458.176">23/05/2025</tspan></text>
</g><g
         transform="matrix(0,0.044919,-0.044922,0,0,0)"
         id="g200"><text
   id="text204"
   style="font-variant:normal;font-weight:normal;font-size:327.68px;font-family:F1;-inkscape-font-specification:F1;writing-mode:lr-tb;fill:#000000;fill-opacity:1;fill-rule:nonzero;stroke:none"
   transform="translate(2187.04,-17174.699)"><tspan
     id="tspan202"
     y="0"
     x="0 180.224 363.72479 455.47519 638.97601 819.20001 910.95038 1094.4512 1274.6752 1458.176">24/05/2025</tspan></text>
</g><g
         transform="matrix(0,0.044919,-0.044922,0,0,0)"
         id="g206"><text
   id="text210"
   style="font-variant:normal;font-weight:normal;font-size:327.68px;font-family:F1;-inkscape-font-specification:F1;writing-mode:lr-tb;fill:#000000;fill-opacity:1;fill-rule:nonzero;stroke:none"
   transform="translate(2187.04,-17783.801)"><tspan
     id="tspan208"
     y="0"
     x="0 180.224 363.72479 455.47519 638.97601 819.20001 910.95038 1094.4512 1274.6752 1458.176">25/05/2025</tspan></text>
</g><g
         transform="matrix(0,0.044919,-0.044922,0,0,0)"
         id="g212"><text
   id="text216"
   style="font-variant:normal;font-weight:normal;font-size:327.68px;font-family:F1;-inkscape-font-specification:F1;writing-mode:lr-tb;fill:#000000;fill-opacity:1;fill-rule:nonzero;stroke:none"
   transform="translate(2187.04,-18396.301)"><tspan
     id="tspan214"
     y="0"
     x="0 180.224 363.72479 455.47519 638.97601 819.20001 910.95038 1094.4512 1274.6752 1458.176">26/05/2025</tspan></text>
</g><g
         transform="matrix(0,0.044919,-0.044922,0,0,0)"
         id="g218"><text
   id="text222"
   style="font-variant:normal;font-weight:normal;font-size:327.68px;font-family:F1;-inkscape-font-specification:F1;writing-mode:lr-tb;fill:#000000;fill-opacity:1;fill-rule:nonzero;stroke:none"
   transform="translate(2187.04,-19016.199)"><tspan
     id="tspan220"
     y="0"
     x="0 180.224 363.72479 455.47519 638.97601 819.20001 910.95038 1094.4512 1274.6752 1458.176">27/05/2025</tspan></text>
</g><g
         transform="matrix(0,0.044919,-0.044922,0,0,0)"
         id="g224"><text
   id="text228"
   style="font-variant:normal;font-weight:normal;font-size:327.68px;font-family:F1;-inkscape-font-specification:F1;writing-mode:lr-tb;fill:#000000;fill-opacity:1;fill-rule:nonzero;stroke:none"
   transform="translate(2187.04,-19639.4)"><tspan
     id="tspan226"
     y="0"
     x="0 180.224 363.72479 455.47519 638.97601 819.20001 910.95038 1094.4512 1274.6752 1458.176">28/05/2025</tspan></text>
</g><g
         transform="matrix(0,0.044919,-0.044922,0,0,0)"
         id="g230"><text
   id="text234"
   style="font-variant:normal;font-weight:normal;font-size:327.68px;font-family:F1;-inkscape-font-specification:F1;writing-mode:lr-tb;fill:#000000;fill-opacity:1;fill-rule:nonzero;stroke:none"
   transform="translate(2187.04,-20237.801)"><tspan
     id="tspan232"
     y="0"
     x="0 180.224 363.72479 455.47519 638.97601 819.20001 910.95038 1094.4512 1274.6752 1458.176">29/05/2025</tspan></text>
</g><g
         transform="matrix(0,0.044919,-0.044922,0,0,0)"
         id="g236"><text
   id="text240"
   style="font-variant:normal;font-weight:normal;font-size:327.68px;font-family:F1;-inkscape-font-specification:F1;writing-mode:lr-tb;fill:#000000;fill-opacity:1;fill-rule:nonzero;stroke:none"
   transform="translate(2187.04,-20836.199)"><tspan
     id="tspan238"
     y="0"
     x="0 180.224 363.72479 455.47519 638.97601 819.20001 910.95038 1094.4512 1274.6752 1458.176">30/05/2025</tspan></text>
</g><g
         transform="matrix(0,0.044919,-0.044922,0,0,0)"
         id="g242"><text
   id="text246"
   style="font-variant:normal;font-weight:normal;font-size:327.68px;font-family:F1;-inkscape-font-specification:F1;writing-mode:lr-tb;fill:#000000;fill-opacity:1;fill-rule:nonzero;stroke:none"
   transform="translate(2187.04,-21434.6)"><tspan
     id="tspan244"
     y="0"
     x="0 180.224 363.72479 455.47519 638.97601 819.20001 910.95038 1094.4512 1274.6752 1458.176">31/05/2025</tspan></text>
</g><g
         transform="matrix(0,0.044919,-0.044922,0,0,0)"
         id="g248"><text
   id="text252"
   style="font-variant:normal;font-weight:normal;font-size:327.68px;font-family:F1;-inkscape-font-specification:F1;writing-mode:lr-tb;fill:#000000;fill-opacity:1;fill-rule:nonzero;stroke:none"
   transform="translate(2187.04,-22043.699)"><tspan
     id="tspan250"
     y="0"
     x="0 180.224 363.72479 455.47519 638.97601 819.20001 910.95038 1094.4512 1274.6752 1458.176">01/06/2025</tspan></text>
</g><g
         transform="matrix(0,0.044919,-0.044922,0,0,0)"
         id="g254"><text
   id="text258"
   style="font-variant:normal;font-weight:normal;font-size:327.68px;font-family:F1;-inkscape-font-specification:F1;writing-mode:lr-tb;fill:#000000;fill-opacity:1;fill-rule:nonzero;stroke:none"
   transform="translate(2187.04,-22656.199)"><tspan
     id="tspan256"
     y="0"
     x="0 180.224 363.72479 455.47519 638.97601 819.20001 910.95038 1094.4512 1274.6752 1458.176">02/06/2025</tspan></text>
</g><g
         transform="matrix(0,0.044919,-0.044922,0,0,0)"
         id="g260"><text
   id="text264"
   style="font-variant:normal;font-weight:normal;font-size:327.68px;font-family:F1;-inkscape-font-specification:F1;writing-mode:lr-tb;fill:#000000;fill-opacity:1;fill-rule:nonzero;stroke:none"
   transform="translate(2187.04,-23276)"><tspan
     id="tspan262"
     y="0"
     x="0 180.224 363.72479 455.47519 638.97601 819.20001 910.95038 1094.4512 1274.6752 1458.176">03/06/2025</tspan></text>
</g><g
         transform="matrix(0,0.044919,-0.044922,0,0,0)"
         id="g266"><text
   id="text270"
   style="font-variant:normal;font-weight:normal;font-size:327.68px;font-family:F1;-inkscape-font-specification:F1;writing-mode:lr-tb;fill:#000000;fill-opacity:1;fill-rule:nonzero;stroke:none"
   transform="translate(2187.04,-23899.199)"><tspan
     id="tspan268"
     y="0"
     x="0 180.224 363.72479 455.47519 638.97601 819.20001 910.95038 1094.4512 1274.6752 1458.176">04/06/2025</tspan></text>
</g><g
         transform="matrix(0,0.044919,-0.044922,0,0,0)"
         id="g272"><text
   id="text276"
   style="font-variant:normal;font-weight:normal;font-size:327.68px;font-family:F1;-inkscape-font-specification:F1;writing-mode:lr-tb;fill:#000000;fill-opacity:1;fill-rule:nonzero;stroke:none"
   transform="translate(2187.04,-24497.6)"><tspan
     id="tspan274"
     y="0"
     x="0 180.224 363.72479 455.47519 638.97601 819.20001 910.95038 1094.4512 1274.6752 1458.176">05/06/2025</tspan></text>
</g><g
         id="g278"><text
   id="text282"
   style="font-variant:normal;font-weight:normal;font-size:14.7191px;font-family:F1;-inkscape-font-specification:F1;writing-mode:lr-tb;fill:#000000;fill-opacity:1;fill-rule:nonzero;stroke:none"
   transform="translate(59.52,191.52)"><tspan
     id="tspan280"
     y="0"
     x="0 8.0955048 25.905617 37.975277 56.374153 68.296623 83.015724 90.375275 111.1292 120.94673 135.66583 145.38043 162.74898 173.37863 191.33594 199.522 217.33211 229.25458 247.65346 259.72311 274.44223 281.80176 302.55569 312.27029 326.98941 336.80695 354.02829 364.65793 382.76242 390.85794 408.66806 420.59052 438.98941 451.05905 465.77817 473.1377 493.89163 503.60623 518.32532 528.14288 545.3642 555.9939 574.09839 582.19385 600.00397 611.92645 630.32532 642.39502 657.11407 664.47363 685.2276 695.0451 709.76422 719.47882 736.84735 747.29791 765.4024 773.58844 791.39856 803.32104 821.71991 833.78955 848.50867 855.86823 876.62213 886.33679 901.05585 910.87341 928.09473 938.72443 956.82892 964.92438 982.7345 994.65698 1013.0558 1025.1255 1039.8446 1047.2042">LuMaMiJuViSaDoLuMaMiJuViSaDoLuMaMiJuViSaDoLuMaMiJuViSaDoLuMaMiJuViSaDoLuMaMiJu</tspan></text>
</g><g
         id="g284"><text
   id="text288"
   style="font-variant:normal;font-weight:normal;font-size:14.7191px;font-family:F1;-inkscape-font-specification:F1;writing-mode:lr-tb;fill:#000000;fill-opacity:1;fill-rule:nonzero;stroke:none"
   transform="translate(34.880001,209.92)"><tspan
     id="tspan286"
     y="0"
     x="0">A</tspan></text>
</g><g
         id="g290"><text
   id="text294"
   style="font-variant:normal;font-weight:normal;font-size:14.7191px;font-family:F1;-inkscape-font-specification:F1;writing-mode:lr-tb;fill:#000000;fill-opacity:1;fill-rule:nonzero;stroke:none"
   transform="translate(34.880001,228.32001)"><tspan
     id="tspan292"
     y="0"
     x="0">B</tspan></text>
</g><g
         id="g296"><text
   id="text300"
   style="font-variant:normal;font-weight:normal;font-size:14.7191px;font-family:F1;-inkscape-font-specification:F1;writing-mode:lr-tb;fill:#000000;fill-opacity:1;fill-rule:nonzero;stroke:none"
   transform="translate(34.400002,246.72)"><tspan
     id="tspan298"
     y="0"
     x="0">C</tspan></text>
</g><g
         id="g302"><text
   id="text306"
   style="font-variant:normal;font-weight:normal;font-size:14.7191px;font-family:F1;-inkscape-font-specification:F1;writing-mode:lr-tb;fill:#000000;fill-opacity:1;fill-rule:nonzero;stroke:none"
   transform="translate(34.400002,265.12)"><tspan
     id="tspan304"
     y="0"
     x="0">D</tspan></text>
</g><g
         id="g308"><text
   id="text312"
   style="font-variant:normal;font-weight:normal;font-size:14.7191px;font-family:F1;-inkscape-font-specification:F1;writing-mode:lr-tb;fill:#000000;fill-opacity:1;fill-rule:nonzero;stroke:none"
   transform="translate(34.880001,283.51999)"><tspan
     id="tspan310"
     y="0"
     x="0">E</tspan></text>
</g><g
         id="g314"><text
   id="text318"
   style="font-variant:normal;font-weight:normal;font-size:14.7191px;font-family:F1;-inkscape-font-specification:F1;writing-mode:lr-tb;fill:#000000;fill-opacity:1;fill-rule:nonzero;stroke:none"
   transform="translate(35.200001,301.92001)"><tspan
     id="tspan316"
     y="0"
     x="0">F</tspan></text>
</g><g
         id="g320"><text
   id="text324"
   style="font-variant:normal;font-weight:normal;font-size:14.7191px;font-family:F1;-inkscape-font-specification:F1;writing-mode:lr-tb;fill:#000000;fill-opacity:1;fill-rule:nonzero;stroke:none"
   transform="translate(33.919998,320.32001)"><tspan
     id="tspan322"
     y="0"
     x="0">G</tspan></text>
</g><g
         id="g326"><text
   id="text330"
   style="font-variant:normal;font-weight:normal;font-size:14.7191px;font-family:F1;-inkscape-font-specification:F1;writing-mode:lr-tb;fill:#000000;fill-opacity:1;fill-rule:nonzero;stroke:none"
   transform="translate(34.400002,338.72)"><tspan
     id="tspan328"
     y="0"
     x="0">H</tspan></text>
</g><g
         id="g332"><text
   id="text336"
   style="font-variant:normal;font-weight:normal;font-size:14.7191px;font-family:F1;-inkscape-font-specification:F1;writing-mode:lr-tb;fill:#000000;fill-opacity:1;fill-rule:nonzero;stroke:none"
   transform="translate(37.599998,357.12)"><tspan
     id="tspan334"
     y="0"
     x="0">I</tspan></text>
</g><g
         id="g338"><text
   id="text342"
   style="font-variant:normal;font-weight:normal;font-size:14.7191px;font-family:F1;-inkscape-font-specification:F1;writing-mode:lr-tb;fill:#000000;fill-opacity:1;fill-rule:nonzero;stroke:none"
   transform="translate(36,375.51999)"><tspan
     id="tspan340"
     y="0"
     x="0">J</tspan></text>
</g><g
         id="g344"><text
   id="text348"
   style="font-variant:normal;font-weight:normal;font-size:14.7191px;font-family:F1;-inkscape-font-specification:F1;writing-mode:lr-tb;fill:#000000;fill-opacity:1;fill-rule:nonzero;stroke:none"
   transform="translate(34.880001,393.92001)"><tspan
     id="tspan346"
     y="0"
     x="0">K</tspan></text>
</g><g
         id="g350"><text
   id="text354"
   style="font-variant:normal;font-weight:normal;font-size:14.7191px;font-family:F1;-inkscape-font-specification:F1;writing-mode:lr-tb;fill:#000000;fill-opacity:1;fill-rule:nonzero;stroke:none"
   transform="translate(35.68,412.32001)"><tspan
     id="tspan352"
     y="0"
     x="0">L</tspan></text>
</g><g
         id="g356"><text
   id="text360"
   style="font-variant:normal;font-weight:normal;font-size:14.7191px;font-family:F1;-inkscape-font-specification:F1;writing-mode:lr-tb;fill:#000000;fill-opacity:1;fill-rule:nonzero;stroke:none"
   transform="translate(33.759998,430.72)"><tspan
     id="tspan358"
     y="0"
     x="0">M</tspan></text>
</g><g
         id="g362"><text
   id="text366"
   style="font-variant:normal;font-weight:normal;font-size:14.7191px;font-family:F1;-inkscape-font-specification:F1;writing-mode:lr-tb;fill:#000000;fill-opacity:1;fill-rule:nonzero;stroke:none"
   transform="translate(34.400002,449.12)"><tspan
     id="tspan364"
     y="0"
     x="0">N</tspan></text>
</g><g
         id="g368"><text
   id="text372"
   style="font-variant:normal;font-weight:normal;font-size:14.7191px;font-family:F1;-inkscape-font-specification:F1;writing-mode:lr-tb;fill:#000000;fill-opacity:1;fill-rule:nonzero;stroke:none"
   transform="translate(33.919998,467.51999)"><tspan
     id="tspan370"
     y="0"
     x="0">O</tspan></text>
</g><g
         id="g374"><text
   id="text378"
   style="font-variant:normal;font-weight:normal;font-size:14.7191px;font-family:F1;-inkscape-font-specification:F1;writing-mode:lr-tb;fill:#000000;fill-opacity:1;fill-rule:nonzero;stroke:none"
   transform="translate(34.880001,485.92001)"><tspan
     id="tspan376"
     y="0"
     x="0">P</tspan></text>
</g><g
         id="g380"><text
   id="text384"
   style="font-variant:normal;font-weight:normal;font-size:14.7191px;font-family:F1;-inkscape-font-specification:F1;writing-mode:lr-tb;fill:#000000;fill-opacity:1;fill-rule:nonzero;stroke:none"
   transform="translate(33.919998,504.32001)"><tspan
     id="tspan382"
     y="0"
     x="0">Q</tspan></text>
</g><g
         id="g386"><text
   id="text390"
   style="font-variant:normal;font-weight:normal;font-size:14.7191px;font-family:F1;-inkscape-font-specification:F1;writing-mode:lr-tb;fill:#000000;fill-opacity:1;fill-rule:nonzero;stroke:none"
   transform="translate(34.400002,522.71997)"><tspan
     id="tspan388"
     y="0"
     x="0">R</tspan></text>
</g><g
         id="g392"><text
   id="text396"
   style="font-variant:normal;font-weight:normal;font-size:14.7191px;font-family:F1;-inkscape-font-specification:F1;writing-mode:lr-tb;fill:#000000;fill-opacity:1;fill-rule:nonzero;stroke:none"
   transform="translate(34.880001,541.12)"><tspan
     id="tspan394"
     y="0"
     x="0">S</tspan></text>
</g><g
         id="g398"><text
   id="text402"
   style="font-variant:normal;font-weight:normal;font-size:14.7191px;font-family:F1;-inkscape-font-specification:F1;writing-mode:lr-tb;fill:#000000;fill-opacity:1;fill-rule:nonzero;stroke:none"
   transform="translate(35.200001,559.52002)"><tspan
     id="tspan400"
     y="0"
     x="0">T</tspan></text>
</g><g
         id="g404"><text
   id="text408"
   style="font-variant:normal;font-weight:normal;font-size:14.7191px;font-family:F1;-inkscape-font-specification:F1;writing-mode:lr-tb;fill:#000000;fill-opacity:1;fill-rule:nonzero;stroke:none"
   transform="translate(34.400002,577.91998)"><tspan
     id="tspan406"
     y="0"
     x="0">U</tspan></text>
</g><g
         id="g410"><text
   id="text414"
   style="font-variant:normal;font-weight:normal;font-size:14.7191px;font-family:F1;-inkscape-font-specification:F1;writing-mode:lr-tb;fill:#000000;fill-opacity:1;fill-rule:nonzero;stroke:none"
   transform="translate(34.880001,596.32001)"><tspan
     id="tspan412"
     y="0"
     x="0">V</tspan></text>
</g><g
         id="g416"><text
   id="text420"
   style="font-variant:normal;font-weight:normal;font-size:14.7191px;font-family:F1;-inkscape-font-specification:F1;writing-mode:lr-tb;fill:#000000;fill-opacity:1;fill-rule:nonzero;stroke:none"
   transform="translate(32.48,614.71997)"><tspan
     id="tspan418"
     y="0"
     x="0">W</tspan></text>
</g><g
         id="g422"><text
   id="text426"
   style="font-variant:normal;font-weight:normal;font-size:14.7191px;font-family:F1;-inkscape-font-specification:F1;writing-mode:lr-tb;fill:#000000;fill-opacity:1;fill-rule:nonzero;stroke:none"
   transform="translate(34.720001,633.12)"><tspan
     id="tspan424"
     y="0"
     x="0">X</tspan></text>
</g><g
         id="g428"><text
   id="text432"
   style="font-variant:normal;font-weight:normal;font-size:14.7191px;font-family:F1;-inkscape-font-specification:F1;writing-mode:lr-tb;fill:#000000;fill-opacity:1;fill-rule:nonzero;stroke:none"
   transform="translate(34.880001,651.52002)"><tspan
     id="tspan430"
     y="0"
     x="0">Y</tspan></text>
</g><g
         id="g434"><text
   id="text438"
   style="font-variant:normal;font-weight:normal;font-size:14.7191px;font-family:F1;-inkscape-font-specification:F1;writing-mode:lr-tb;fill:#000000;fill-opacity:1;fill-rule:nonzero;stroke:none"
   transform="translate(35.200001,669.91998)"><tspan
     id="tspan436"
     y="0"
     x="0">Z</tspan></text>
</g><g
         id="g440"><text
   id="text444"
   style="font-variant:normal;font-weight:normal;font-size:14.7191px;font-family:F1;-inkscape-font-specification:F1;writing-mode:lr-tb;fill:#000000;fill-opacity:1;fill-rule:nonzero;stroke:none"
   transform="translate(29.92,688.32001)"><tspan
     id="tspan442"
     y="0"
     x="0 9.7146063">AA</tspan></text>
</g><g
         id="g446"><text
   id="text450"
   style="font-variant:normal;font-weight:normal;font-size:14.7191px;font-family:F1;-inkscape-font-specification:F1;writing-mode:lr-tb;fill:#000000;fill-opacity:1;fill-rule:nonzero;stroke:none"
   transform="translate(29.92,706.71997)"><tspan
     id="tspan448"
     y="0"
     x="0 9.7146063">AB</tspan></text>
</g><g
         id="g452"><text
   id="text456"
   style="font-variant:normal;font-weight:normal;font-size:14.7191px;font-family:F1;-inkscape-font-specification:F1;writing-mode:lr-tb;fill:#000000;fill-opacity:1;fill-rule:nonzero;stroke:none"
   transform="translate(29.6,725.12)"><tspan
     id="tspan454"
     y="0"
     x="0 9.7146063">AC</tspan></text>
</g><g
         id="g458"><g
           clip-path="url(#clipPath464)"
           id="g460"><text
   id="text468"
   style="font-variant:normal;font-weight:normal;font-size:14.7191px;font-family:F2;-inkscape-font-specification:F2;writing-mode:lr-tb;fill:#000000;fill-opacity:1;fill-rule:nonzero;stroke:none"
   transform="translate(81.599998,87.199997)"><tspan
     id="tspan466"
     y="0"
     x="0 8.5166664 16.170599 21.30216 24.680079">Abril</tspan></text>
</g></g><g
         id="g470"><g
           clip-path="url(#clipPath476)"
           id="g472"><text
   id="text480"
   style="font-variant:normal;font-weight:normal;font-size:14.7191px;font-family:F2;-inkscape-font-specification:F2;writing-mode:lr-tb;fill:#000000;fill-opacity:1;fill-rule:nonzero;stroke:none"
   transform="translate(542.88,87.199997)"><tspan
     id="tspan478"
     y="0"
     x="0 12.584543 19.63505 26.405836">Mayo</tspan></text>
</g></g><g
         id="g482"><g
           clip-path="url(#clipPath488)"
           id="g484"><text
   id="text492"
   style="font-variant:normal;font-weight:normal;font-size:14.7191px;font-family:F2;-inkscape-font-specification:F2;writing-mode:lr-tb;fill:#000000;fill-opacity:1;fill-rule:nonzero;stroke:none"
   transform="translate(1036.16,87.199997)"><tspan
     id="tspan490"
     y="0"
     x="0 4.6931505 12.347082 20.001015 23.378933">Junio</tspan></text>
</g></g><g
         id="g494"><path
           id="path496"
           style="fill:#000000;fill-opacity:1;fill-rule:evenodd;stroke:none"
           d="m 24,72 h 1.280001 V 729.76001 H 24 Z m 28.959999,1.279999 h 1.280003 V 729.76001 h -1.280003 z m 82.719991,0 h 1.28002 V 729.76001 h -1.28002 z m 846.08002,0 h 1.27997 V 729.76001 h -1.27997 z m 137.59999,0 h 1.28 V 729.76001 h -1.28 z m -1039.520004,19.36 h 1.280007 V 729.76001 h -1.280007 z m 28.960004,0 h 1.28 V 729.76001 h -1.28 z m 53.76,0 h 1.28 V 729.76001 h -1.28 z m 26.88,0 h 1.28 V 729.76001 h -1.28 z m 26.88001,0 h 1.28 V 729.76001 h -1.28 z m 28,0 h 1.28 V 729.76001 h -1.28 z m 26.88,0 h 1.28 V 729.76001 h -1.28 z m 28.95999,0 h 1.28 V 729.76001 h -1.28 z m 26.88001,0 h 1.28 V 729.76001 h -1.28 z m 26.88,0 h 1.28 V 729.76001 h -1.28 z m 26.87998,0 h 1.28 V 729.76001 h -1.28 z m 26.88,0 h 1.28 V 729.76001 h -1.28 z m 28,0 h 1.28 V 729.76001 h -1.28 z m 26.88001,0 h 1.28 V 729.76001 h -1.28 z m 28.95999,0 h 1.28 V 729.76001 h -1.28 z m 26.88003,0 h 1.27997 V 729.76001 h -1.27997 z m 26.88001,0 H 546.56 V 729.76001 h -1.27997 z m 26.87994,0 H 573.44 V 729.76001 h -1.28003 z m 26.88001,0 h 1.28003 V 729.76001 h -1.28003 z m 28,0 h 1.28003 V 729.76001 h -1.28003 z m 26.88,0 h 1.28003 V 729.76001 h -1.28003 z m 28.96002,0 h 1.27997 V 729.76001 H 682.88 Z m 26.88001,0 h 1.27997 V 729.76001 h -1.27997 z m 26.88,0 h 1.27997 V 729.76001 h -1.27997 z m 26.88001,0 h 1.27997 V 729.76001 h -1.27997 z m 26.88,0 h 1.27997 V 729.76001 h -1.27997 z m 28,0 h 1.27997 V 729.76001 h -1.27997 z m 26.88001,0 H 846.56 V 729.76001 h -1.27997 z m 28.95996,0 h 1.28003 V 729.76001 h -1.28003 z m 26.88001,0 h 1.28002 V 729.76001 H 901.12 Z m 26.88,0 h 1.28003 V 729.76001 H 928 Z m 26.88,0 h 1.27997 V 729.76001 H 954.88 Z m 54.88,0 h 1.28 V 729.76001 h -1.28 z m 26.88,0 h 1.28 V 729.76001 h -1.28 z m 28.96,0 h 1.28 V 729.76001 h -1.28 z m 26.88,0 h 1.28 V 729.76001 h -1.28 z" /></g><g
         id="g498"><path
           id="path500"
           style="fill:#000000;fill-opacity:1;fill-rule:evenodd;stroke:none"
           d="M 25.280001,72 H 1120.64 v 1.279999 H 25.280001 Z m 0,19.360001 H 1120.64 v 1.279998 H 25.280001 Z m 0,85.119999 H 1120.64 v 1.27999 H 25.280001 Z m 0,18.4 H 1120.64 v 1.28 H 25.280001 Z m 0,18.4 H 1120.64 v 1.28 H 25.280001 Z m 0,18.39999 H 1120.64 v 1.28002 H 25.280001 Z m 0,18.40001 H 1120.64 v 1.28 H 25.280001 Z m 0,18.40001 H 1120.64 v 1.28 H 25.280001 Z m 0,18.39999 H 1120.64 v 1.28 H 25.280001 Z m 0,18.4 H 1120.64 v 1.28 H 25.280001 Z m 0,18.39999 H 1120.64 v 1.28 H 25.280001 Z m 0,18.4 H 1120.64 v 1.28 H 25.280001 Z m 0,18.40002 H 1120.64 v 1.28 H 25.280001 Z m 0,18.39999 H 1120.64 v 1.28 H 25.280001 Z m 0,18.4 H 1120.64 v 1.28 H 25.280001 Z m 0,18.39999 H 1120.64 v 1.28 H 25.280001 Z m 0,18.4 H 1120.64 v 1.28 H 25.280001 Z m 0,18.40002 H 1120.64 v 1.28 H 25.280001 Z m 0,18.39999 H 1120.64 v 1.28 H 25.280001 Z m 0,18.4 H 1120.64 v 1.28 H 25.280001 Z m 0,18.39999 H 1120.64 v 1.28 H 25.280001 Z m 0,18.40003 H 1120.64 v 1.27996 H 25.280001 Z m 0,18.39996 H 1120.64 v 1.28003 H 25.280001 Z m 0,18.40002 H 1120.64 v 1.27997 H 25.280001 Z m 0,18.40003 H 1120.64 V 582.56 H 25.280001 Z m 0,18.39996 H 1120.64 v 1.28003 H 25.280001 Z m 0,18.40003 H 1120.64 v 1.27996 H 25.280001 Z m 0,18.39996 H 1120.64 v 1.28003 H 25.280001 Z m 0,18.40002 H 1120.64 v 1.27997 H 25.280001 Z m 0,18.40003 H 1120.64 V 674.56 H 25.280001 Z m 0,18.39996 H 1120.64 v 1.28003 H 25.280001 Z m 0,18.40003 H 1120.64 v 1.27996 H 25.280001 Z m 0,18.39996 H 1120.64 v 1.28003 H 25.280001 Z" /></g></g></g></svg>
